<svg xmlns="http://www.w3.org/2000/svg" width="512" height="512" fill="none" viewBox="0 0 512 512">
  <g clip-path="url(#a)">
    <path fill="#F0F0F0" d="M256 512c141.385 0 256-114.615 256-256S397.385 0 256 0 0 114.615 0 256s114.615 256 256 256Z"/>
    <path fill="#6DA544" d="M435.138 73.144C388.965 27.904 325.747 0 256 0c-22.261 0-87.394 27.904-133.565 73.144h312.703ZM256 219.429h253.388a254.196 254.196 0 0 0-22.038-73.143H244.87L256 219.429ZM24.651 365.715h462.698a254.164 254.164 0 0 0 22.039-73.144H2.612a254.145 254.145 0 0 0 22.039 73.144Zm52.211 73.141C123.035 484.096 186.253 512 256 512s132.965-27.904 179.138-73.144H76.862Z"/>
    <path fill="#D80027" d="M256 0C127.034 0 20.36 95.371 2.612 219.429H256V0Z"/>
    <path fill="#F0F0F0" d="m128 196.267-11.13-22.26v-44.522l27.826-22.261 27.826 22.261v33.391l11.13-11.13v22.261l-22.261 22.26H128ZM68.135 128l2.947 9.07h9.536l-7.715 5.607 2.948 9.069-7.716-5.606-7.716 5.606 2.948-9.069-7.715-5.607h9.536l2.947-9.07Zm22.261-22.261 2.947 9.07h9.537l-7.716 5.607 2.947 9.069-7.715-5.605-7.715 5.605 2.948-9.069-7.716-5.607h9.535l2.948-9.07Zm22.261-22.261 2.947 9.07h9.535l-7.714 5.607 2.946 9.069-7.714-5.605-7.716 5.605 2.947-9.07-7.714-5.606h9.535l2.948-9.07ZM221.256 128l-2.947 9.07h-9.535l7.714 5.607-2.947 9.069 7.715-5.606 7.716 5.606-2.947-9.069 7.714-5.607h-9.535l-2.948-9.07Zm-22.261-22.261-2.947 9.07h-9.535l7.714 5.607-2.947 9.069 7.715-5.605 7.716 5.605-2.948-9.069 7.715-5.607h-9.535l-2.948-9.07Zm-22.26-22.261-2.948 9.07h-9.535l7.714 5.607-2.947 9.069 7.716-5.605 7.715 5.605-2.947-9.07 7.714-5.606h-9.535l-2.947-9.07Zm-32.039-11.13-2.948 9.07h-9.535l7.714 5.606-2.947 9.069 7.716-5.605 7.715 5.605-2.947-9.07 7.714-5.605h-9.535l-2.947-9.07Z"/>
  </g>
  <defs>
    <clipPath id="a">
      <path fill="#fff" d="M0 0h512v512H0z"/>
    </clipPath>
  </defs>
</svg>
