<svg xmlns="http://www.w3.org/2000/svg" width="512" height="512" fill="none" viewBox="0 0 512 512">
  <g clip-path="url(#a)">
    <path fill="#D80027" d="M367.304 25.402C333.648 9.128 295.89 0 256 0s-77.648 9.128-111.304 25.402L122.435 256l22.261 230.598C178.352 502.872 216.11 512 256 512s77.648-9.128 111.304-25.402L389.565 256 367.304 25.402Z"/>
    <path fill="#000" d="M144.696 25.41C59.066 66.819 0 154.508 0 256s59.066 189.182 144.696 230.589V25.411Z"/>
    <path fill="#496E2D" d="M367.304 25.41v461.18C452.934 445.182 512 357.493 512 256S452.934 66.818 367.304 25.41Z"/>
    <path fill="#FFDA44" d="M256 166.957c-49.178 0-89.043 39.866-89.043 89.043 0 49.177 39.866 89.043 89.043 89.043 49.177 0 89.043-39.866 89.043-89.043 0-49.177-39.865-89.043-89.043-89.043Zm0 144.695c-30.736 0-55.652-24.917-55.652-55.652s24.917-55.652 55.652-55.652 55.652 24.917 55.652 55.652-24.916 55.652-55.652 55.652Z"/>
    <path fill="#FFDA44" d="M256 222.609c-12.295 0-22.261 9.966-22.261 22.261v33.391h44.522V244.87c0-12.295-9.966-22.261-22.261-22.261Z"/>
  </g>
  <defs>
    <clipPath id="a">
      <path fill="#fff" d="M0 0h512v512H0z"/>
    </clipPath>
  </defs>
</svg>
