<svg xmlns="http://www.w3.org/2000/svg" width="512" height="512" fill="none" viewBox="0 0 512 512">
  <g clip-path="url(#a)">
    <path fill="#FFDA44" d="M256.001.001c141.384 0 256 114.616 256 256 0 141.384-114.616 256-256 256-141.384 0-256-114.616-256-256"/>
    <path fill="#D80027" d="M250.436 113.779H468.88a257.408 257.408 0 0 0-51.987-56.89H250.436v56.89Zm0 113.778h259.985a254.547 254.547 0 0 0-13.006-56.888H250.436v56.888ZM14.588 341.335h482.825a254.566 254.566 0 0 0 13.007-56.89H1.582a254.375 254.375 0 0 0 13.006 56.89Zm80.52 113.777h321.784a257.434 257.434 0 0 0 51.987-56.889H43.123a257.447 257.447 0 0 0 51.985 56.889Z"/>
    <path fill="#4A1F63" d="M256.001.001C114.616.001-.001 114.617 0 256.003c58.426-.002 114.616 0 256 0L256.001.001Z"/>
    <path fill="#F0F0F0" d="M211.479 133.566v22.261h-11.13v-22.261h-22.261v22.261h-11.13v-44.522h-44.522v44.522h-11.131v-22.261h-22.26v22.261h-11.13v-22.261H55.651v66.782H233.74v-66.782h-22.261Z"/>
  </g>
  <defs>
    <clipPath id="a">
      <path fill="#fff" d="M0 0h512.001v512.001H0z"/>
    </clipPath>
  </defs>
</svg>
