<svg xmlns="http://www.w3.org/2000/svg" width="512" height="512" fill="none" viewBox="0 0 512 512">
  <g clip-path="url(#a)">
    <path fill="#FFDA44" d="M512 256.001c0-31.314-5.632-61.311-15.923-89.043L256 155.827l-240.077 11.13C5.632 194.69 0 224.687 0 256.001s5.632 61.311 15.923 89.043L256 356.175l240.077-11.13C506.368 317.312 512 287.315 512 256.001Z"/>
    <path fill="#6DA544" d="M256 512.001c110.071 0 203.906-69.472 240.077-166.957H15.923C52.093 442.529 145.929 512.001 256 512.001Z"/>
    <path fill="#D80027" d="M15.923 166.958h480.155C459.906 69.473 366.071.001 256 .001S52.094 69.473 15.923 166.958Z"/>
  </g>
  <defs>
    <clipPath id="a">
      <path fill="#fff" d="M0 .001h512v512H0z"/>
    </clipPath>
  </defs>
</svg>
