<svg xmlns="http://www.w3.org/2000/svg" width="512" height="512" fill="none" viewBox="0 0 512 512">
  <g clip-path="url(#a)">
    <path fill="#F0F0F0" d="M256 512c141.385 0 256-114.615 256-256S397.385 0 256 0 0 114.615 0 256s114.615 256 256 256Z"/>
    <path fill="#FFDA44" d="M256 0C165.23 0 85.5 47.243 40.044 118.479l347.159 357.37C461.946 431.147 512 349.423 512 256 512 114.616 397.384 0 256 0Z"/>
    <path fill="#0052B4" d="M512 256c0-66.422-25.298-126.93-66.783-172.428v344.857C486.702 382.93 512 322.422 512 256ZM319.789 481.873l26.815-.017 8.272-25.509 8.302 25.499 13.45-.008a255.753 255.753 0 0 0 23.9-14.529L44.689 111.471a256.06 256.06 0 0 0-16.021 26.75l3.162 9.712 26.815-.017-21.684 15.775 8.302 25.499-21.704-15.748-12.945 9.416C3.713 206.034 0 230.583 0 256c0 141.384 114.616 256 256 256 29.892 0 58.583-5.132 85.25-14.552l-21.461-15.575ZM57.099 244.87l8.27-25.508-21.702-15.75 26.815-.017 8.271-25.509 8.302 25.499 26.815-.017-21.685 15.775 8.302 25.499-21.704-15.748-21.684 15.776Zm55.225 55.652 8.27-25.508-21.702-15.75 26.815-.017 8.271-25.509 8.302 25.499 26.815-.017-21.684 15.775 8.302 25.499-21.704-15.748-21.685 15.776Zm55.224 55.652 8.27-25.508-21.702-15.75 26.815-.017 8.271-25.509 8.302 25.499 26.815-.017-21.684 15.775 8.302 25.499-21.704-15.75-21.685 15.778Zm76.909 39.877-21.685 15.775 8.27-25.508-21.702-15.75 26.815-.017 8.272-25.509 8.302 25.499 26.815-.017-21.684 15.775 8.302 25.499-21.705-15.747Zm33.54 71.427 8.27-25.508-21.702-15.75 26.815-.017 8.271-25.509 8.302 25.499 26.815-.017-21.684 15.775 8.302 25.499-21.704-15.75-21.685 15.778Z"/>
  </g>
  <defs>
    <clipPath id="a">
      <path fill="#fff" d="M0 0h512v512H0z"/>
    </clipPath>
  </defs>
</svg>
