<svg xmlns="http://www.w3.org/2000/svg" width="512" height="512" fill="none" viewBox="0 0 512 512">
  <g clip-path="url(#a)">
    <path fill="#F0F0F0" d="M12.089 178.086C4.247 202.655 0 228.828.001 255.999 0 283.168 4.247 309.342 12.09 333.912l243.911 11.132 243.91-11.132C507.752 309.342 512 283.167 512 256c0-27.17-4.247-53.345-12.089-77.914L256 166.956l-243.911 11.13Z"/>
    <path fill="#000" d="M512 256c0-15.187-1.33-30.063-3.867-44.523H3.868A257.356 257.356 0 0 0 0 255.999c0 15.188 1.331 30.062 3.868 44.522h504.265A257.568 257.568 0 0 0 512 256Z"/>
    <path fill="#338AF3" d="M256.001 511.999c114.216 0 210.946-74.803 243.91-178.088H12.091C45.054 437.195 141.785 511.997 256 511.999Zm0-511.998C141.786.001 45.056 74.804 12.089 178.086l487.82.001C466.946 74.804 370.215-.001 256.001.001Z"/>
  </g>
  <defs>
    <clipPath id="a">
      <path fill="#fff" d="M0 0h512v512H0z"/>
    </clipPath>
  </defs>
</svg>
