<svg xmlns="http://www.w3.org/2000/svg" width="512" height="512" fill="none" viewBox="0 0 512 512">
  <g clip-path="url(#a)">
    <path fill="#F0F0F0" d="M255.997 511.953c141.361 0 255.957-114.596 255.957-255.957S397.358.039 255.997.039.04 114.635.04 255.996s114.596 255.957 255.957 255.957Z"/>
    <path fill="#000" d="M34.33 128.016c-11.553 20.008-20.075 40.926-25.75 62.233L436.638 437.39c15.615-15.569 29.471-33.41 41.021-53.417L34.33 128.016Z"/>
    <path fill="#FFDA44" d="M383.974 34.329C281.558-24.8 155.278-5.093 75.351 74.599L503.41 321.738c29.053-109.062-17.021-228.279-119.435-287.409ZM128.017 477.66c102.414 59.129 228.697 39.422 308.622-40.269L8.579 190.249C-20.47 299.314 25.602 418.531 128.018 477.66Z"/>
    <path fill="#D80027" d="M328.331 228.173c0 39.949-32.386 72.336-72.336 72.336-39.95 0-72.336-32.386-72.336-72.336 0-12.456 3.149-24.177 8.695-34.41-15.697 16.053-25.388 38.005-25.388 62.231 0 49.169 39.859 89.029 89.029 89.029 49.17 0 89.029-39.859 89.029-89.029 0-24.226-9.69-46.178-25.388-62.231 5.546 10.235 8.695 21.954 8.695 34.41Z"/>
    <path fill="#D80027" d="M239.304 144.71h33.386v166.929h-33.386V144.71Z"/>
    <path fill="#D80027" d="M311.638 178.095H200.353c0 7.683 6.693 13.911 14.375 13.911h-.464c0 7.683 6.229 13.911 13.911 13.911 0 7.683 6.229 13.911 13.911 13.911h27.821c7.683 0 13.911-6.228 13.911-13.911 7.683 0 13.911-6.228 13.911-13.911h-.463c7.68-.001 14.372-6.227 14.372-13.911ZM178.097 322.767h155.8v33.386h-155.8v-33.386Z"/>
    <path fill="#D80027" d="M289.382 333.896h66.771v33.386h-66.771v-33.386Zm-133.542 0h66.771v33.386H155.84v-33.386Z"/>
  </g>
  <defs>
    <clipPath id="a">
      <path fill="#fff" d="M0 0h511.989v511.989H0z"/>
    </clipPath>
  </defs>
</svg>
