<svg xmlns="http://www.w3.org/2000/svg" width="513" height="512" fill="none" viewBox="0 0 513 512">
  <g clip-path="url(#a)">
    <path fill="#496E2D" d="M512.989 256c0-31.314-5.632-61.311-15.923-89.043l-240.077-11.131-240.077 11.13C6.622 194.689.99 224.686.99 256s5.633 61.311 15.923 89.043l240.077 11.131 240.077-11.13c10.291-27.733 15.923-57.73 15.923-89.044Z"/>
    <path fill="#D80027" d="M256.989 512c110.071 0 203.906-69.472 240.077-166.957H16.912C53.083 442.528 146.918 512 256.99 512Z"/>
    <path fill="#F0F0F0" d="M16.912 166.957h480.155C460.895 69.472 367.06 0 256.989 0S53.083 69.472 16.912 166.957Z"/>
  </g>
  <defs>
    <clipPath id="a">
      <path fill="#fff" d="M.99 0h512v512H.99z"/>
    </clipPath>
  </defs>
</svg>
