<svg xmlns="http://www.w3.org/2000/svg" width="513" height="512" fill="none" viewBox="0 0 513 512">
  <g clip-path="url(#a)">
    <path fill="#D80027" d="M.988 256.001c0-141.384 114.616-256 256-256 141.384 0 256 114.616 256 256-11.13 0-256 33.391-256 33.391l-256-33.391Z"/>
    <path fill="#6DA544" d="M512.988 256.001c0 141.384-114.616 256-256 256-141.384 0-256-114.616-256-256"/>
    <path fill="#FFDA44" d="m256.987 166.958 19.337 59.518h62.587l-50.632 36.786 19.338 59.522-50.63-36.785-50.631 36.785 19.341-59.522-50.633-36.786h62.584l19.339-59.518Z"/>
  </g>
  <defs>
    <clipPath id="a">
      <path fill="#fff" d="M.988.001h512v512h-512z"/>
    </clipPath>
  </defs>
</svg>
