<svg xmlns="http://www.w3.org/2000/svg" width="512" height="512" fill="none" viewBox="0 0 512 512">
  <g clip-path="url(#a)">
    <path fill="#F0F0F0" d="M256 512c141.385 0 256-114.615 256-256S397.385 0 256 0 0 114.615 0 256s114.615 256 256 256Z"/>
    <path fill="#D80027" d="M411.876 52.902c-91.652-70.526-220.1-70.526-311.752-.001L256 208.777 411.876 52.902ZM255.998 303.224 100.124 459.098c91.652 70.526 220.1 70.526 311.752 0L256 303.222l-.002.002Z"/>
    <path fill="#6DA544" d="M208.777 256 52.902 100.124c-70.526 91.652-70.526 220.1 0 311.752L208.777 256Zm94.447 0 155.874 155.876c70.526-91.652 70.526-220.1 0-311.752L303.224 256Z"/>
    <path fill="#F0F0F0" d="M256 367.304c61.471 0 111.304-49.833 111.304-111.304 0-61.472-49.833-111.304-111.304-111.304-61.472 0-111.304 49.832-111.304 111.304 0 61.471 49.832 111.304 111.304 111.304Z"/>
    <path fill="#D80027" d="m256 178.087 9.639 16.696h19.279l-9.64 16.695 9.64 16.696h-19.279L256 244.87l-9.639-16.696h-19.278l9.639-16.696-9.639-16.695h19.278L256 178.087ZM207.005 256l9.639 16.696h19.278l-9.639 16.695 9.639 16.696h-19.278l-9.639 16.696-9.64-16.696h-19.278l9.639-16.696-9.639-16.695h19.278l9.64-16.696Zm97.991 0 9.639 16.696h19.278l-9.639 16.695 9.639 16.696h-19.278l-9.639 16.696-9.64-16.696h-19.278l9.639-16.696-9.639-16.695h19.278l9.64-16.696Z"/>
  </g>
  <defs>
    <clipPath id="a">
      <path fill="#fff" d="M0 0h512v512H0z"/>
    </clipPath>
  </defs>
</svg>
