<svg xmlns="http://www.w3.org/2000/svg" width="512" height="512" fill="none" viewBox="0 0 512 512">
  <g clip-path="url(#a)">
    <path fill="#D80027" d="M0 256c0 44.35 11.283 86.064 31.127 122.435L256 400.696l224.873-22.261C500.717 342.064 512 300.35 512 256c0-44.35-11.283-86.064-31.127-122.435L256 111.304 31.127 133.565C11.283 169.936 0 211.65 0 256Z"/>
    <path fill="#0052B4" d="M31.127 133.565h449.745C437.454 53.989 353.035 0 256 0 158.965 0 74.546 53.989 31.127 133.565ZM256 512c97.035 0 181.454-53.989 224.873-133.565H31.127C74.546 458.011 158.965 512 256 512Z"/>
    <path fill="#F0F0F0" d="M345.043 306.087v-33.391h-22.26v-44.522l-22.261-22.261-22.261 22.261v-44.522L256 161.391l-22.261 22.261v44.522l-22.261-22.261-22.261 22.261v44.522h-22.26v33.391h-22.261v33.391h222.608v-33.391h-22.261Z"/>
  </g>
  <defs>
    <clipPath id="a">
      <path fill="#fff" d="M0 0h512v512H0z"/>
    </clipPath>
  </defs>
</svg>
