<svg xmlns="http://www.w3.org/2000/svg" width="512" height="512" fill="none" viewBox="0 0 512 512">
  <g clip-path="url(#a)">
    <path fill="#D80027" d="M367.304 25.402C333.648 9.128 295.89 0 256 0s-77.648 9.128-111.304 25.402L122.435 256l22.261 230.598C178.352 502.872 216.11 512 256 512s77.648-9.128 111.304-25.402L389.565 256 367.304 25.402Z"/>
    <path fill="#FFDA44" d="m255.998 166.957 22.1 68.019h71.528l-57.864 42.044 22.101 68.023-57.865-42.041-57.865 42.041 22.105-68.023-57.864-42.044h71.523l22.101-68.019Z"/>
    <path fill="#496E2D" d="M144.696 25.411C59.066 66.817 0 154.506 0 256s59.066 189.183 144.696 230.589V25.411Z"/>
    <path fill="#FFDA44" d="M367.304 25.411V486.59C452.934 445.183 512 357.493 512 256S452.934 66.817 367.304 25.411Z"/>
  </g>
  <defs>
    <clipPath id="a">
      <path fill="#fff" d="M0 0h512v512H0z"/>
    </clipPath>
  </defs>
</svg>
