<svg xmlns="http://www.w3.org/2000/svg" width="512" height="512" fill="none" viewBox="0 0 512 512">
  <g clip-path="url(#a)">
    <path fill="#F0F0F0" d="M256 512c141.385 0 256-114.615 256-256S397.385 0 256 0 0 114.615 0 256s114.615 256 256 256Z"/>
    <path fill="#D80027" d="M512 256c0-101.494-59.065-189.19-144.696-230.598v461.195C452.935 445.19 512 357.494 512 256ZM0 256c0 101.494 59.065 189.19 144.696 230.598V25.402C59.065 66.81 0 154.506 0 256Zm300.522 33.391 44.521-22.261-22.26-11.13v-22.261L278.261 256l22.261-44.522h-22.261L256 178.087l-22.261 33.391h-22.261L233.739 256l-44.522-22.261V256l-22.26 11.13 44.521 22.261-11.13 22.261h44.522v33.391h22.26v-33.391h44.522l-11.13-22.261Z"/>
  </g>
  <defs>
    <clipPath id="a">
      <path fill="#fff" d="M0 0h512v512H0z"/>
    </clipPath>
  </defs>
</svg>
