<svg xmlns="http://www.w3.org/2000/svg" width="512" height="512" fill="none" viewBox="0 0 512 512">
  <g clip-path="url(#a)">
    <path fill="#338AF3" d="M256 0c-31.314 0-61.311 5.633-89.043 15.923L155.826 256l11.13 240.077C194.689 506.368 224.686 512 256 512s61.311-5.632 89.043-15.923L356.174 256l-11.13-240.077C317.311 5.633 287.314 0 256 0Z"/>
    <path fill="#FFDA44" d="M512 256c0-110.071-69.472-203.906-166.957-240.077v480.155C442.528 459.906 512 366.071 512 256Z"/>
    <path fill="#F0F0F0" d="M166.957 496.077V15.923C69.472 52.093 0 145.929 0 256s69.472 203.906 166.957 240.077Z"/>
  </g>
  <defs>
    <clipPath id="a">
      <path fill="#fff" d="M0 0h512v512H0z"/>
    </clipPath>
  </defs>
</svg>
