<svg xmlns="http://www.w3.org/2000/svg" width="512" height="512" fill="none" viewBox="0 0 512 512">
  <g clip-path="url(#a)">
    <path fill="#F0F0F0" d="M256 512c141.385 0 256-114.615 256-256S397.385 0 256 0 0 114.615 0 256s114.615 256 256 256Z"/>
    <path fill="#0052B4" d="M256 512c77.591 0 147.114-34.524 194.061-89.043H61.939C108.886 477.476 178.409 512 256 512Zm256-256C512 114.616 397.384 0 256 0 114.616 0 0 114.616 0 256c0 23.107 3.08 45.489 8.819 66.783h494.363C508.92 301.489 512 279.107 512 256Z"/>
    <path fill="#D80027" d="M20.348 356.174a254.959 254.959 0 0 0 17.227 33.391h436.852a255.576 255.576 0 0 0 17.227-33.391H20.348Z"/>
    <path fill="#FFDA44" d="m182.99 272.696 4.144 12.754h13.411l-10.849 7.883 4.144 12.754-10.85-7.883-10.85 7.883 4.145-12.754-10.849-7.883h13.411l4.143-12.754Zm0 166.956 4.144 12.755h13.411l-10.849 7.882 4.144 12.754-10.85-7.882-10.85 7.882 4.145-12.754-10.849-7.882h13.411l4.143-12.755Zm-77.716-56.463 4.144 12.753h13.411l-10.849 7.882 4.144 12.756-10.85-7.883-10.85 7.883 4.146-12.756-10.85-7.882h13.41l4.144-12.753Zm29.685-93.798 4.144 12.755h13.41l-10.848 7.882 4.144 12.755-10.85-7.883-10.85 7.883 4.146-12.755-10.851-7.882h13.411l4.144-12.755ZM87.72 341.915l13.408.001 4.145-12.757 4.145 12.756 13.411-.001-10.85 7.883 4.145 12.755-10.851-7.883-10.849 7.88 4.144-12.753-10.848-7.881Zm36.39 111.996 4.144-12.752-10.851-7.882h13.411l4.145-12.755 4.145 12.754h13.41l-10.85 7.882 4.144 12.756-10.85-7.884-10.848 7.881Zm136.567-70.722-4.143 12.753h-13.411l10.848 7.882-4.144 12.756 10.85-7.883 10.85 7.883-4.145-12.756 10.85-7.882h-13.411l-4.144-12.753Zm-29.685-93.798-4.143 12.755h-13.411l10.848 7.882-4.144 12.755 10.85-7.883 10.85 7.883-4.145-12.755 10.85-7.882h-13.411l-4.144-12.755Zm47.24 52.524-13.409.001-4.145-12.757-4.144 12.756-13.411-.001 10.849 7.883-4.145 12.755 10.851-7.883 10.849 7.88-4.144-12.753 10.849-7.881Zm-36.391 111.996-4.143-12.752 10.85-7.882h-13.411l-4.145-12.755-4.144 12.754h-13.411l10.85 7.882-4.144 12.756 10.85-7.884 10.848 7.881Z"/>
  </g>
  <defs>
    <clipPath id="a">
      <path fill="#fff" d="M0 0h512v512H0z"/>
    </clipPath>
  </defs>
</svg>
