<svg xmlns="http://www.w3.org/2000/svg" width="512" height="512" fill="none" viewBox="0 0 512 512">
  <g clip-path="url(#a)">
    <path fill="#0052B4" d="M512 256c0 141.384-114.616 256-256 256C114.616 512 0 397.384 0 256 0 256.061 256 .028 256 0c141.384 0 256 114.616 256 256Z"/>
    <path fill="#F0F0F0" d="M255.315 256H256v-.685l-.685.685Z"/>
    <path fill="#F0F0F0" d="M256 133.565V0h-.043C114.591.024 0 114.629 0 256h133.565v-75.211L208.776 256h46.54l.685-.685v-46.537l-75.213-75.213H256Z"/>
    <path fill="#6DA544" d="M367.304 189.218c24.589 0 44.522-19.933 44.522-44.522s-19.933-44.522-44.522-44.522-44.522 19.933-44.522 44.522 19.933 44.522 44.522 44.522Z"/>
    <path fill="#D80027" d="M129.515 33.391a257.216 257.216 0 0 0-96.124 96.124V256h66.783V100.174H256V33.391H129.515Z"/>
    <path fill="#D80027" d="m256 224.519-90.955-90.953h-31.48v.002L255.998 256H256v-31.481Zm33.391-90.954h155.826v66.783H289.391v-66.783Z"/>
    <path fill="#FFDA44" d="M289.391 300.522v44.522h23.424c14.045 13.764 33.27 22.261 54.489 22.261 21.219 0 40.444-8.497 54.489-22.261h23.424v-44.522H289.391Z"/>
    <path fill="#338AF3" d="M289.391 189.217V256c0 59.639 77.913 77.913 77.913 77.913s77.913-18.274 77.913-77.913v-66.783H289.391Z"/>
    <path fill="#F3F3F3" d="M367.3 224.889c-19.477 0-19.477 17.809-38.954 17.809s-19.477-17.809-38.954-17.809v31.165c19.477 0 19.477 17.809 38.954 17.809s19.477-17.809 38.954-17.809c19.479 0 19.479 17.809 38.959 17.809 19.48 0 19.479-17.809 38.959-17.809v-31.165c-19.479 0-19.479 17.809-38.959 17.809-19.48 0-19.48-17.809-38.959-17.809Zm0-62.385c-19.477 0-19.477 17.809-38.954 17.809s-19.477-17.809-38.954-17.809v31.165c19.477 0 19.477 17.809 38.954 17.809s19.477-17.809 38.954-17.809c19.479 0 19.479 17.809 38.959 17.809 19.48 0 19.479-17.809 38.959-17.809v-31.165c-19.479 0-19.479 17.809-38.959 17.809-19.48 0-19.48-17.809-38.959-17.809Z"/>
  </g>
  <defs>
    <clipPath id="a">
      <path fill="#fff" d="M0 0h512v512H0z"/>
    </clipPath>
  </defs>
</svg>
