<svg xmlns="http://www.w3.org/2000/svg" width="512" height="513" fill="none" viewBox="0 0 512 513">
  <g clip-path="url(#a)">
    <path fill="#F0F0F0" d="M256 512.989c141.385 0 256-114.615 256-256s-114.615-256-256-256S0 115.604 0 256.99s114.615 256 256 256Z"/>
    <path fill="#0052B4" d="M480.873 134.554c-33.08-60.629-89.963-106.398-158.09-124.76l-11.13 124.76h169.22Zm-449.746 0h169.22l-11.13-124.76C121.09 28.156 64.208 73.926 31.127 134.554Z"/>
    <path fill="#6DA544" d="M311.652 256.989v122.435h169.22C500.717 343.053 512 301.339 512 256.989H311.652Zm-111.304 0H0c0 44.35 11.283 86.064 31.127 122.435h169.22V256.989h.001Z"/>
    <path fill="#FFDA44" d="M31.127 379.424c33.081 60.629 89.963 106.398 158.09 124.76l11.13-109.109-169.22-15.651Zm291.656 124.76c68.127-18.362 125.01-64.131 158.09-124.76l-169.22 15.649 11.13 109.111Zm-11.131-109.111 169.221-15.649H311.652v15.649Zm-111.304-15.649H31.127l169.221 15.649v-15.649Z"/>
    <path fill="#D80027" d="M256 .99c-23.107 0-45.489 3.08-66.783 8.818v494.363c21.294 5.738 43.676 8.818 66.783 8.818s45.489-3.08 66.783-8.819V9.808C301.489 4.07 279.107.99 256 .99Z"/>
    <path fill="#FFDA44" d="m137.698 56.641 6.906 21.257h22.353l-18.082 13.138 6.907 21.257-18.084-13.137-18.083 13.137 6.909-21.257-18.082-13.138h22.351l6.905-21.257Z"/>
  </g>
  <defs>
    <clipPath id="a">
      <path fill="#fff" d="M0 .99h512v512H0z"/>
    </clipPath>
  </defs>
</svg>
