<svg xmlns="http://www.w3.org/2000/svg" width="512" height="512" fill="none" viewBox="0 0 512 512">
  <g clip-path="url(#a)">
    <path fill="#F0F0F0" d="M256 512c141.385 0 256-114.615 256-256S397.385 0 256 0 0 114.615 0 256s114.615 256 256 256Z"/>
    <path fill="#000" d="M256 0C185.307 0 121.307 28.654 74.98 74.98L256 256V0ZM0 256c0 70.693 28.654 134.693 74.98 181.02L256 256H0Zm256 256c70.693 0 134.693-28.654 181.02-74.98L256 256v256Zm256-256c0-70.693-28.654-134.693-74.98-181.02L256 256h256Z"/>
    <path fill="#FFDA44" d="M166.957 178.087 256 189.22l89.043-11.133v-53.426l-35.617 17.809L256 89.043l-53.426 53.427-35.617-17.809v53.426Z"/>
    <path fill="#D80027" d="M256 389.565c-49.099 0-89.043-39.945-89.043-89.043v-89.039l33.391-33.394h111.304l33.391 33.394v89.039c0 49.098-39.944 89.043-89.043 89.043Z"/>
    <path fill="#F0F0F0" d="M256 356.174c-30.687 0-55.652-24.966-55.652-55.652V211.48h111.304v89.041c0 30.687-24.965 55.653-55.652 55.653Z"/>
    <path fill="#FFDA44" d="M166.957 178.087h33.391v33.391h-33.391v-33.391Zm144.695 0h33.391v33.391h-33.391v-33.391Zm0 72.348h33.391v33.391h-33.391v-33.391Zm-144.695 0h33.391v33.391h-33.391v-33.391ZM256 356.174c-5.816 0-11.423-.9-16.696-2.562v34.361A89.03 89.03 0 0 0 256 389.566a89.03 89.03 0 0 0 16.696-1.593v-34.361A55.476 55.476 0 0 1 256 356.174Zm-54.908-46.618-26.648 26.648a89.353 89.353 0 0 0 19.314 27.908l23.6-23.6c-8.422-8.137-14.289-18.897-16.266-30.956Zm136.464 26.65-26.648-26.648c-1.978 12.058-7.844 22.817-16.265 30.957l23.6 23.6a89.4 89.4 0 0 0 19.313-27.909Z"/>
    <path fill="#0052B4" d="M244.87 230.03v18.55c0 6.146 4.983 11.13 11.13 11.13 6.147 0 11.13-4.984 11.13-11.13v-18.55h-22.26Zm0 74.203v18.55c0 6.146 4.983 11.13 11.13 11.13 6.147 0 11.13-4.984 11.13-11.13v-18.55h-22.26Zm33.391-37.103v18.552c0 6.146 4.983 11.13 11.13 11.13 6.147 0 11.13-4.984 11.13-11.13V267.13h-22.26Zm-33.391 0v18.552c0 6.146 4.983 11.13 11.13 11.13 6.147 0 11.13-4.984 11.13-11.13V267.13h-22.26Zm-33.392 0v18.552c0 6.146 4.983 11.13 11.13 11.13 6.147 0 11.13-4.984 11.13-11.13V267.13h-22.26Z"/>
  </g>
  <defs>
    <clipPath id="a">
      <path fill="#fff" d="M0 0h512v512H0z"/>
    </clipPath>
  </defs>
</svg>
