<svg xmlns="http://www.w3.org/2000/svg" width="512" height="512" fill="none" viewBox="0 0 512 512">
  <g clip-path="url(#a)">
    <path fill="#FFDA44" d="M256 .001c-31.314 0-61.311 5.633-89.043 15.923l-11.131 240.077 11.13 240.077c27.733 10.291 57.73 15.923 89.044 15.923s61.311-5.632 89.043-15.923l11.131-240.077-11.13-240.077C317.311 5.634 287.314.001 256 .001Z"/>
    <path fill="#D80027" d="M512 256.001c0-110.071-69.472-203.906-166.957-240.077v480.155C442.528 459.907 512 366.072 512 256.001Z"/>
    <path fill="#0052B4" d="M166.957 496.078V15.924C69.472 52.094 0 145.93 0 256s69.472 203.906 166.957 240.077Z"/>
  </g>
  <defs>
    <clipPath id="a">
      <path fill="#fff" d="M0 .001h512v512H0z"/>
    </clipPath>
  </defs>
</svg>
