<svg xmlns="http://www.w3.org/2000/svg" width="512" height="512" fill="none" viewBox="0 0 512 512">
  <g clip-path="url(#a)">
    <path fill="#6DA544" d="M256 512c141.385 0 256-114.615 256-256S397.385 0 256 0 0 114.615 0 256s114.615 256 256 256Z"/>
    <path fill="#FFDA44" d="m392.984 367.304 7.025 14.689 15.864-3.666-7.104 14.651 12.757 10.116-15.884 3.58.045 16.283-12.703-10.187-12.702 10.187.044-16.283-15.883-3.58 12.757-10.116-7.104-14.651 15.863 3.666 7.025-14.689Zm-65.352-155.826 7.026 14.689 15.864-3.667-7.105 14.652 12.757 10.116-15.883 3.58.044 16.282-12.703-10.186-12.702 10.186.043-16.282-15.882-3.58 12.757-10.116-7.105-14.652 15.865 3.667 7.024-14.689Zm65.352-89.043 7.025 14.689 15.864-3.668-7.103 14.652 12.756 10.117-15.884 3.579.043 16.283-12.701-10.187-12.702 10.187.044-16.283-15.882-3.579 12.756-10.117-7.104-14.652 15.863 3.668 7.025-14.689Zm57.083 66.782 7.025 14.689 15.865-3.667-7.105 14.652 12.757 10.116-15.883 3.58.044 16.283-12.703-10.187-12.702 10.187.043-16.283-15.882-3.58 12.757-10.116-7.105-14.652 15.864 3.667 7.025-14.689Zm-40.818 77.913 5.527 17.007h17.881l-14.467 10.51 5.527 17.005-14.468-10.509-14.465 10.509 5.525-17.005-14.466-10.51h17.881l5.525-17.007Z"/>
    <path fill="#FFDA44" d="M283.826 328.348c-39.957 0-72.349-32.392-72.349-72.348 0-39.956 32.391-72.348 72.349-72.348 12.458 0 24.181 3.151 34.415 8.696-16.055-15.702-38.01-25.392-62.243-25.392-49.176 0-89.042 39.866-89.042 89.043 0 49.177 39.866 89.043 89.042 89.043 24.232 0 46.188-9.69 62.242-25.392-10.233 5.547-21.956 8.698-34.414 8.698Zm-122.84-228.174c-7.7-13.304-22.075-22.26-38.551-22.26-16.476 0-30.851 8.956-38.551 22.26h77.102Zm.148.257-38.699 38.699-38.699-38.699a44.301 44.301 0 0 0-5.822 22.004c0 24.589 19.933 44.522 44.522 44.522s44.522-19.932 44.522-44.522a44.313 44.313 0 0 0-5.824-22.004Z"/>
    <path fill="#A2001D" d="M111.304 128v37.554a44.627 44.627 0 0 0 11.13 1.402c3.843 0 7.573-.488 11.13-1.402V128h-22.26Z"/>
  </g>
  <defs>
    <clipPath id="a">
      <path fill="#fff" d="M0 0h512v512H0z"/>
    </clipPath>
  </defs>
</svg>
