<svg xmlns="http://www.w3.org/2000/svg" width="512" height="512" fill="none" viewBox="0 0 512 512">
  <g clip-path="url(#a)">
    <path fill="#F0F0F0" d="M512 256.001c0-31.314-5.633-61.311-15.923-89.043L256 155.827l-240.077 11.13C5.633 194.69 0 224.687 0 256.001s5.633 61.311 15.923 89.043L256 356.175l240.077-11.13c10.29-27.733 15.923-57.73 15.923-89.044Z"/>
    <path fill="#0052B4" d="M256 512.001c110.071 0 203.906-69.472 240.077-166.957H15.923C52.093 442.529 145.929 512.001 256 512.001Z"/>
    <path fill="#D80027" d="M15.923 166.958h480.155C459.906 69.473 366.071.001 256 .001S52.094 69.473 15.923 166.958Z"/>
    <path fill="#338AF3" d="M322.783 178.089h-44.522l7.421-55.653 29.68-22.261 29.681 22.261v44.522l-22.26 11.131Zm-133.566 0h44.522l-7.421-55.653-29.681-22.261-29.68 22.261v44.522l22.26 11.131Z"/>
    <path fill="#0052B4" d="M285.682 178.089h-59.364v-55.653L256 100.175l29.682 22.261v55.653Z"/>
    <path fill="#F0F0F0" d="M166.957 166.959v122.434c0 29.153 14.082 55.079 35.802 71.332l15.583-3.899 19.664 19.782a89.098 89.098 0 0 0 17.995 1.829c6.13 0 12.117-.623 17.901-1.809l22.447-18.69 12.892 2.751c21.711-16.252 35.803-42.151 35.803-71.296V166.959H166.957Z"/>
    <path fill="#D80027" d="M166.957 166.958h35.617v35.617h-35.617v-35.617Zm71.234 0h35.617v35.617h-35.617v-35.617Zm71.235 0h35.617v35.617h-35.617v-35.617Zm-106.852 35.617h35.617v35.617h-35.617v-35.617Zm71.235 0h35.617v35.617h-35.617v-35.617Zm-106.852 35.606h35.617v35.617h-35.617v-35.617Zm35.617 35.618h35.617v35.617h-35.617v-35.617Zm35.617-35.618h35.617v35.617h-35.617v-35.617Zm71.235 0h35.617v35.617h-35.617v-35.617Zm-35.617 35.618h35.617v35.617h-35.617v-35.617Zm-35.618 35.617h35.617v35.617h-35.617v-35.617Zm-35.617.003h-33.319c3.056 13.24 9.064 25.355 17.302 35.617h16.017v-35.617Zm106.852 35.618h16.016a88.75 88.75 0 0 0 17.302-35.617h-33.318v35.617Zm-106.852 0v15.541c10.359 7.795 22.465 13.384 35.617 16.066v-31.607h-35.617Zm71.235 0v31.607c13.153-2.68 25.258-8.271 35.617-16.066v-15.541h-35.617Z"/>
  </g>
  <defs>
    <clipPath id="a">
      <path fill="#fff" d="M0 .001h512v512H0z"/>
    </clipPath>
  </defs>
</svg>
