<svg xmlns="http://www.w3.org/2000/svg" width="512" height="512" fill="none" viewBox="0 0 512 512">
  <g clip-path="url(#a)">
    <path fill="#FF9811" d="M.001 44.522H0v422.956h.001V44.522Z"/>
    <path fill="#F0F0F0" d="M255.999 511.999c141.384 0 255.999-114.615 255.999-255.999C511.998 114.616 397.383.001 255.999.001 114.615.001 0 114.616 0 256c0 141.384 114.615 255.999 255.999 255.999Z"/>
    <path fill="#0052B4" d="M256.001.002c-83.752 0-158.106 40.223-204.811 102.4h409.621C414.107 40.224 339.752.002 256.001.002Zm0 511.997c83.752 0 158.106-40.223 204.811-102.4H51.19c46.704 62.178 121.059 102.4 204.811 102.4Zm-256-255.998a257.1 257.1 0 0 0 5.127 51.2h501.747a257.1 257.1 0 0 0 5.126-51.2c0-17.535-1.768-34.657-5.126-51.2H5.128a257.1 257.1 0 0 0-5.127 51.2Z"/>
    <path fill="#D80027" d="M74.981 74.982c-99.973 99.973-99.973 262.064 0 362.039L256 256.002 74.981 74.982Z"/>
    <path fill="#F0F0F0" d="m103.611 189.219 16.574 51.015h53.646l-43.397 31.532 16.574 51.016-43.397-31.53-43.399 31.53 16.578-51.016-43.398-31.532h53.642l16.577-51.015Z"/>
  </g>
  <defs>
    <clipPath id="a">
      <path fill="#fff" d="M0 0h512v512H0z"/>
    </clipPath>
  </defs>
</svg>
