<svg xmlns="http://www.w3.org/2000/svg" width="512" height="512" fill="none" viewBox="0 0 512 512">
  <g clip-path="url(#a)">
    <path fill="#FFDA44" d="M256 512c141.385 0 256-114.615 256-256S397.385 0 256 0 0 114.615 0 256s114.615 256 256 256Z"/>
    <path fill="#0052B4" d="M256 512c84 0 158.549-40.458 205.229-102.949H50.771C97.451 471.542 172 512 256 512Zm256-256C512 114.616 397.384 0 256 0 114.616 0 0 114.616 0 256c0 30.273 5.269 59.312 14.916 86.269h482.167C506.731 315.312 512 286.273 512 256Z"/>
    <path fill="#F0F0F0" d="m175.222 164.183 13.813 42.512h44.704l-36.165 26.278 13.813 42.514-36.165-26.276-36.165 26.276 13.815-42.514-36.165-26.278h44.702l13.813-42.512ZM98.454 119.66l8.288 25.508h26.823l-21.699 15.766 8.288 25.509-21.7-15.766-21.7 15.766 8.29-25.509-21.698-15.766h26.822l8.286-25.508Z"/>
  </g>
  <defs>
    <clipPath id="a">
      <path fill="#fff" d="M0 0h512v512H0z"/>
    </clipPath>
  </defs>
</svg>
