<svg xmlns="http://www.w3.org/2000/svg" width="512" height="513" fill="none" viewBox="0 0 512 513">
  <g clip-path="url(#a)">
    <path fill="#FFDA44" d="M0 256.99c0 31.316 5.633 61.312 15.924 89.046L256 368.294l240.076-22.259C506.368 318.302 512 288.305 512 256.99c0-30.885-5.471-60.492-15.494-87.905L256 145.686l-240.506 23.4C5.471 196.498 0 226.105 0 256.99Z"/>
    <path fill="#D80027" d="M256 512.989c110.071 0 203.906-69.472 240.077-166.957H15.923C52.093 443.517 145.929 512.989 256 512.989Z"/>
    <path fill="#6DA544" d="M256 .99C145.929.99 52.094 70.46 15.923 167.945h480.155C459.906 70.461 366.071.989 256 .989Z"/>
    <path fill="#0052B4" d="M256 379.425c67.619 0 122.435-54.816 122.435-122.435S323.619 134.555 256 134.555 133.565 189.371 133.565 256.99 188.381 379.425 256 379.425Z"/>
    <path fill="#FFDA44" d="m255.974 162.181 22.102 68.022h71.637l-57.978 42.041 22.276 68.224-58.037-42.241-57.948 42.163 22.186-68.146-57.925-42.041h71.585l22.102-68.022Z"/>
    <path fill="#FFDA44" d="m344.124 273.92-70.116-22.784 43.333-59.64-18.008-13.086-43.335 59.644-43.331-59.643-18.01 13.084 43.332 59.645-70.113 22.779 6.878 21.173 70.116-22.781v73.722h22.26V272.31l70.113 22.782 6.881-21.172Z"/>
  </g>
  <defs>
    <clipPath id="a">
      <path fill="#fff" d="M0 .99h512v512H0z"/>
    </clipPath>
  </defs>
</svg>
