<svg xmlns="http://www.w3.org/2000/svg" width="512" height="512" fill="none" viewBox="0 0 512 512">
  <g clip-path="url(#a)">
    <path fill="#0052B4" d="M512 256.001c0 141.384-114.616 256-256 256-141.384 0-256-114.616-256-256 0 .061 256-255.972 256-256 141.384 0 256 114.616 256 256Z"/>
    <path fill="#F0F0F0" d="M255.315 256.001H256v-.685l-.685.685Z"/>
    <path fill="#F0F0F0" d="M256 133.566V.001h-.043C114.592.025 0 114.63 0 256.001h133.565V180.79l75.212 75.211h46.539l.685-.685v-46.537l-75.213-75.213H256Z"/>
    <path fill="#D80027" d="M129.515 33.392a257.218 257.218 0 0 0-96.124 96.124v126.485h66.783V100.175H256V33.392H129.515Z"/>
    <path fill="#D80027" d="m255.999 224.519-90.953-90.953h-31.481v.002L255.997 256h.002v-31.481Z"/>
    <path fill="#FFDA44" d="M411.826 300.523v11.13h-89.043v-11.13h-33.392v44.521h22.261v11.131h111.305v-11.131h22.26v-44.521h-33.391Z"/>
    <path fill="#338AF3" d="M289.391 133.566v122.435c0 59.639 77.913 77.913 77.913 77.913s77.913-18.274 77.913-77.913V133.566H289.391Z"/>
    <path fill="#F3F3F3" d="M367.3 224.89c-19.477 0-19.477 17.809-38.954 17.809s-19.477-17.809-38.954-17.809v31.165c19.477 0 19.477 17.809 38.954 17.809s19.477-17.809 38.954-17.809c19.479 0 19.479 17.809 38.959 17.809 19.48 0 19.479-17.809 38.959-17.809V224.89c-19.479 0-19.479 17.809-38.959 17.809-19.48 0-19.48-17.809-38.959-17.809Zm0-62.385c-19.477 0-19.477 17.809-38.954 17.809s-19.477-17.809-38.954-17.809v31.165c19.477 0 19.477 17.809 38.954 17.809s19.477-17.809 38.954-17.809c19.479 0 19.479 17.809 38.959 17.809 19.48 0 19.479-17.809 38.959-17.809v-31.165c-19.479 0-19.479 17.809-38.959 17.809-19.48 0-19.48-17.809-38.959-17.809Z"/>
  </g>
  <defs>
    <clipPath id="a">
      <path fill="#fff" d="M0 .001h512v512H0z"/>
    </clipPath>
  </defs>
</svg>
