<svg xmlns="http://www.w3.org/2000/svg" width="512" height="512" fill="none" viewBox="0 0 512 512">
  <g clip-path="url(#a)">
    <path fill="#F0F0F0" d="M256 512c141.385 0 256-114.615 256-256S397.385 0 256 0 0 114.615 0 256s114.615 256 256 256Z"/>
    <path fill="#0052B4" d="m500.87 256 8.959-33.391a255.712 255.712 0 0 0-6.647-33.391H233.739V.974a255.354 255.354 0 0 0-33.391 5.12l-44.522 27.297-22.261-2.247a256.297 256.297 0 0 0-33.391 21.75v136.323H8.819a255.712 255.712 0 0 0-6.647 33.391L11.13 256l-8.959 33.391a255.712 255.712 0 0 0 6.647 33.391h91.355v136.322a256.26 256.26 0 0 0 33.391 21.751l33.391-2.247 33.391 27.296a255.745 255.745 0 0 0 33.391 5.121V322.783h269.442a255.712 255.712 0 0 0 6.647-33.391L500.87 256Z"/>
    <path fill="#D80027" d="M509.833 222.609H200.348V6.085a254.26 254.26 0 0 0-66.783 25.042v191.481H2.167A258.556 258.556 0 0 0 0 256c0 11.317.744 22.461 2.167 33.391h131.398v191.481a254.258 254.258 0 0 0 66.783 25.042V289.392h309.485A258.556 258.556 0 0 0 512 256c0-11.317-.744-22.461-2.167-33.391Z"/>
  </g>
  <defs>
    <clipPath id="a">
      <path fill="#fff" d="M0 0h512v512H0z"/>
    </clipPath>
  </defs>
</svg>
