<svg xmlns="http://www.w3.org/2000/svg" width="512" height="512" fill="none" viewBox="0 0 512 512">
  <g clip-path="url(#a)">
    <path fill="#F0F0F0" d="M256 512c141.385 0 256-114.615 256-256S397.385 0 256 0 0 114.615 0 256s114.615 256 256 256Z"/>
    <path fill="#D80027" d="M31.127 133.565h449.745C437.454 53.989 353.035 0 256 0 158.965 0 74.546 53.989 31.127 133.565ZM256 512c97.035 0 181.454-53.989 224.873-133.565H31.127C74.546 458.011 158.965 512 256 512Z"/>
    <path fill="#FFDA44" d="M345.043 256c0 49.178-39.866 77.913-89.043 77.913-49.177 0-89.043-28.735-89.043-77.913s39.866-89.043 89.043-89.043c49.177 0 89.043 39.865 89.043 89.043Z"/>
    <path fill="#0052B4" d="M345.043 256c0 49.178-39.866 89.043-89.043 89.043-49.177 0-89.043-39.865-89.043-89.043"/>
    <path fill="#D80027" d="M200.348 233.738h22.261v44.522h-22.261v-44.522Zm89.043 0h22.261v44.522h-22.261v-44.522Zm-44.521-33.39h22.261v77.913H244.87v-77.913Z"/>
  </g>
  <defs>
    <clipPath id="a">
      <path fill="#fff" d="M0 0h512v512H0z"/>
    </clipPath>
  </defs>
</svg>
