<svg xmlns="http://www.w3.org/2000/svg" width="512" height="513" fill="none" viewBox="0 0 512 513">
  <g clip-path="url(#a)">
    <path fill="#F0F0F0" d="M256 512.989c141.385 0 256-114.615 256-256s-114.615-256-256-256S0 115.604 0 256.99s114.615 256 256 256Z"/>
    <path fill="#A2001D" d="M256 .99C150.165.99 59.337 65.214 20.348 156.814h471.305C452.664 65.215 361.835.989 256 .989Z"/>
    <path fill="#496E2D" d="M256 512.989c105.835 0 196.664-64.226 235.652-155.826H20.348c38.99 91.6 129.817 155.826 235.652 155.826Z"/>
    <path fill="#0052B4" d="M503.181 190.206H8.819C3.08 211.499 0 233.882 0 256.989s3.08 45.49 8.819 66.783h494.363c5.738-21.293 8.818-43.676 8.818-66.783s-3.08-45.49-8.819-66.783Z"/>
  </g>
  <defs>
    <clipPath id="a">
      <path fill="#fff" d="M0 .99h512v512H0z"/>
    </clipPath>
  </defs>
</svg>
