<svg xmlns="http://www.w3.org/2000/svg" width="512" height="512" fill="none" viewBox="0 0 512 512">
  <g clip-path="url(#a)">
    <path fill="#F0F0F0" d="M256 512c141.385 0 256-114.615 256-256S397.385 0 256 0 0 114.615 0 256s114.615 256 256 256Z"/>
    <path fill="#D80027" d="M509.833 222.609H289.392V2.167A258.556 258.556 0 0 0 256 0c-11.317 0-22.461.744-33.391 2.167v220.441H2.167A258.556 258.556 0 0 0 0 256c0 11.319.744 22.461 2.167 33.391h220.441v220.442a258.35 258.35 0 0 0 66.783 0V289.392h220.442A258.533 258.533 0 0 0 512 256c0-11.317-.744-22.461-2.167-33.391Z"/>
    <path fill="#D80027" d="M155.826 122.435V89.043h-33.391v33.392H89.043v33.391h33.392v33.391h33.391v-33.391h33.391v-33.391h-33.391Zm233.739 0V89.043h-33.391v33.392h-33.391v33.391h33.391v33.391h33.391v-33.391h33.392v-33.391h-33.392ZM155.826 356.174v-33.391h-33.391v33.391H89.043v33.391h33.392v33.392h33.391v-33.392h33.391v-33.391h-33.391Zm233.739 0v-33.391h-33.391v33.391h-33.391v33.391h33.391v33.392h33.391v-33.392h33.392v-33.391h-33.392Z"/>
  </g>
  <defs>
    <clipPath id="a">
      <path fill="#fff" d="M0 0h512v512H0z"/>
    </clipPath>
  </defs>
</svg>
