<svg xmlns="http://www.w3.org/2000/svg" width="512" height="512" fill="none" viewBox="0 0 512 512">
  <g clip-path="url(#a)">
    <path fill="#F9F9F9" d="M256 512c141.385 0 256-114.615 256-256S397.385 0 256 0 0 114.615 0 256s114.615 256 256 256Z"/>
    <path fill="#D80027" d="M256 512c110.07 0 203.906-69.472 240.076-166.957H15.922C52.094 442.528 145.928 512 256 512Zm100.174-300.522v-33.391h11.13v-22.261h-22.261v11.131h-22.26v-11.131h-22.261v22.261h11.13v33.391h-22.261v-77.911h11.131v-22.26h-22.261v11.128H267.13v-11.128h-22.26v11.128h-11.131v-11.128h-22.261v22.26h11.131v77.911h-22.261v-33.391h11.13v-22.261h-22.261v11.131h-22.26v-11.131h-22.261v22.261h11.13v33.391h-22.261v89.044h244.87v-89.044h-22.261Z"/>
    <path fill="#FFDA44" d="M256 289.391c-18.441 0-33.391 14.95-33.391 33.391 0 14.536 9.294 26.9 22.261 31.484v46.43h-33.391v44.522h55.652v-90.951c12.967-4.584 22.261-16.947 22.261-31.484-.001-18.441-14.951-33.392-33.392-33.392Zm0 44.522c-6.147 0-11.13-4.984-11.13-11.13 0-6.147 4.983-11.13 11.13-11.13 6.147 0 11.13 4.983 11.13 11.13 0 6.146-4.983 11.13-11.13 11.13Z"/>
  </g>
  <defs>
    <clipPath id="a">
      <path fill="#fff" d="M0 0h512v512H0z"/>
    </clipPath>
  </defs>
</svg>
