<svg xmlns="http://www.w3.org/2000/svg" width="512" height="512" fill="none" viewBox="0 0 512 512">
  <g clip-path="url(#a)">
    <path fill="#F0F0F0" d="M256 512c141.385 0 256-114.615 256-256S397.385 0 256 0 0 114.615 0 256s114.615 256 256 256Z"/>
    <path fill="#338AF3" d="M256 189.217h247.181a254.559 254.559 0 0 0-28.755-66.783H256v66.783ZM96.643 456.348h318.713a257.293 257.293 0 0 0 59.069-66.783H37.574a257.346 257.346 0 0 0 59.069 66.783Zm-7.6-394.408a257.261 257.261 0 0 0-51.469 60.495h51.469V61.94Z"/>
    <path fill="#338AF3" d="M256 256v-66.783H155.826V256H89.043v-66.783H8.819C3.08 210.511 0 232.893 0 256s3.08 45.489 8.819 66.783h494.363C508.92 301.489 512 279.107 512 256H256Zm0-256c-35.549 0-69.404 7.253-100.174 20.348v102.087H256V55.652h159.357C371.626 20.824 316.249 0 256 0Z"/>
  </g>
  <defs>
    <clipPath id="a">
      <path fill="#fff" d="M0 0h512v512H0z"/>
    </clipPath>
  </defs>
</svg>
