<svg xmlns="http://www.w3.org/2000/svg" width="512" height="512" fill="none" viewBox="0 0 512 512">
  <g clip-path="url(#a)">
    <path fill="#F0F0F0" d="M256 512c141.385 0 256-114.615 256-256S397.385 0 256 0 0 114.615 0 256s114.615 256 256 256Z"/>
    <path fill="#338AF3" d="M512 256c0-101.494-59.065-189.19-144.696-230.598v461.195C452.935 445.19 512 357.493 512 256ZM0 256c0 101.493 59.065 189.19 144.696 230.598V25.402C59.065 66.81 0 154.506 0 256Z"/>
    <path fill="#ACABB1" d="m322.898 299.288-43.286-43.286 41.203-41.205-1.867-21.762-11.796-11.798L256 232.389l-51.152-51.152-11.796 11.798-1.867 21.762 41.203 41.205-43.287 43.286 23.612 23.61L256 279.613l43.287 43.285 23.611-23.61Z"/>
    <path fill="#6DA544" d="m318.963 193.037-23.611 23.611c10.071 10.071 16.301 23.984 16.301 39.352 0 30.736-24.917 55.652-55.652 55.652S200.348 286.736 200.348 256c0-15.368 6.23-29.281 16.301-39.352l-23.611-23.611c-16.115 16.112-26.081 38.373-26.081 62.963 0 49.178 39.866 89.043 89.043 89.043 49.177 0 89.043-39.866 89.043-89.043 0-24.589-9.966-46.85-26.08-62.963Z"/>
  </g>
  <defs>
    <clipPath id="a">
      <path fill="#fff" d="M0 0h512v512H0z"/>
    </clipPath>
  </defs>
</svg>
