<svg xmlns="http://www.w3.org/2000/svg" width="512" height="513" fill="none" viewBox="0 0 512 513">
  <g clip-path="url(#a)">
    <path fill="#F0F0F0" d="M256 512.989c141.385 0 256-114.615 256-256s-114.615-256-256-256S0 115.604 0 256.99s114.615 256 256 256Z"/>
    <path fill="#D80027" d="M509.833 223.598H289.392V3.156A258.556 258.556 0 0 0 256 .99c-11.317 0-22.461.744-33.391 2.167v220.442H2.167A258.529 258.529 0 0 0 0 256.989c0 11.317.744 22.461 2.167 33.391h220.441v220.442a258.35 258.35 0 0 0 66.783 0V290.381h220.442A258.556 258.556 0 0 0 512 256.989c0-11.317-.744-22.461-2.167-33.391Z"/>
    <path fill="#FFDA44" d="m328.348 268.119 16.695 11.131v-44.522l-16.695 11.131H267.13v-61.218l11.131-16.695h-44.522l11.131 16.695v61.218h-61.218l-16.695-11.131v44.522l16.695-11.131h61.218v61.218l-11.131 16.695h44.522l-11.131-16.695v-61.218h61.218Z"/>
  </g>
  <defs>
    <clipPath id="a">
      <path fill="#fff" d="M0 .99h512v512H0z"/>
    </clipPath>
  </defs>
</svg>
