<svg xmlns="http://www.w3.org/2000/svg" width="512" height="512" fill="none" viewBox="0 0 512 512">
  <g clip-path="url(#a)">
    <path fill="#A2001D" d="M512 256c0 141.384-114.616 256-256 256C114.616 512 0 397.384 0 256 0 114.616 256 0 256 0s256 114.616 256 256Z"/>
    <path fill="#0052B4" d="M0 256C0 114.616 114.616 0 256 0c141.384 0 256 114.616 256 256"/>
    <path fill="#F0F0F0" d="M345.043 322.783 256 311.652l-89.043 11.131V189.217h178.086v133.566Z"/>
    <path fill="#0052B4" d="M256 311.652c24.589 0 44.522-19.933 44.522-44.522 0-24.588-19.933-44.522-44.522-44.522s-44.522 19.934-44.522 44.522c0 24.589 19.933 44.522 44.522 44.522Z"/>
    <path fill="#A2001D" d="M256 289.391c12.294 0 22.261-9.966 22.261-22.261 0-12.294-9.967-22.261-22.261-22.261-12.294 0-22.261 9.967-22.261 22.261 0 12.295 9.967 22.261 22.261 22.261Z"/>
    <path fill="#6DA544" d="M222.609 211.478h66.782L256 244.87l-33.391-33.392Z"/>
    <path fill="#FFDA44" d="M244.87 233.739h22.261v66.783H244.87v-66.783Z"/>
    <path fill="#6DA544" d="M291.617 293.843h-71.236l-53.424 28.94h178.086l-53.426-28.94Z"/>
  </g>
  <defs>
    <clipPath id="a">
      <path fill="#fff" d="M0 0h512v512H0z"/>
    </clipPath>
  </defs>
</svg>
