<svg xmlns="http://www.w3.org/2000/svg" width="512" height="512" fill="none" viewBox="0 0 512 512">
  <g clip-path="url(#a)">
    <path fill="#F0F0F0" d="M256 512c141.385 0 256-114.615 256-256S397.385 0 256 0 0 114.615 0 256s114.615 256 256 256Z"/>
    <path fill="#D80027" d="M256 512c64.917 0 124.179-24.176 169.306-64H86.694c45.127 39.824 104.389 64 169.306 64Z"/>
    <path fill="#0052B4" d="M8.065 320a254.444 254.444 0 0 0 26.19 64h443.488a254.445 254.445 0 0 0 26.191-64L256 300.522 8.065 320Zm495.87-128a254.445 254.445 0 0 0-26.191-64L256 122.435V0c-19.017 0-37.551 2.075-55.386 6.008-.342.076-167.223 131.71-167.223 249.992C37.658 256.742 256 278.261 256 278.261V192h247.935Z"/>
    <path fill="#F0F0F0" d="M256 159.722v-128h-81.075l25.697-25.697C95.131 29.291 14.076 117.615 1.67 226.783A258.572 258.572 0 0 0 0 256h129.67v-51.023L181.198 256h91.585l-97.859-96.278H256Z"/>
    <path fill="#D80027" d="m256.117 256-96.278-96.278H129.67v.001L225.947 256H97.391V128h380.353c-13.938-24.093-31.696-45.697-52.437-64H97.391v-8.925a257.223 257.223 0 0 0-64 74.479V256H0c0 22.099 2.8 43.545 8.065 64h495.87C509.2 299.544 512 278.099 512 256H256.117Z"/>
  </g>
  <defs>
    <clipPath id="a">
      <path fill="#fff" d="M0 0h512v512H0z"/>
    </clipPath>
  </defs>
</svg>
