<svg xmlns="http://www.w3.org/2000/svg" width="512" height="512" fill="none" viewBox="0 0 512 512">
  <g clip-path="url(#a)">
    <path fill="#F0F0F0" d="M256 512c141.385 0 256-114.615 256-256S397.385 0 256 0 0 114.615 0 256s114.615 256 256 256Z"/>
    <path fill="#338AF3" d="M256 512c101.493 0 189.19-59.065 230.598-144.696H25.402C66.81 452.935 154.506 512 256 512Zm0-512C154.506 0 66.81 59.065 25.402 144.696h461.195C445.19 59.065 357.493 0 256 0Zm-98.455 166.957 8.288 25.509h26.821l-21.698 15.764 8.289 25.509-21.7-15.765-21.7 15.765 8.289-25.509-21.699-15.764h26.821l8.289-25.509Zm0 111.304 8.288 25.51h26.821l-21.698 15.764 8.289 25.508-21.7-15.765-21.7 15.765 8.289-25.508-21.699-15.764h26.821l8.289-25.51Zm196.91-111.304 8.289 25.509h26.821l-21.699 15.764 8.289 25.509-21.7-15.765-21.7 15.765 8.289-25.509-21.699-15.764h26.822l8.288-25.509Zm0 111.304 8.289 25.51h26.821l-21.699 15.764 8.289 25.508-21.7-15.765-21.7 15.765 8.289-25.508-21.699-15.764h26.822l8.288-25.51ZM256 222.609l8.289 25.51h26.821l-21.699 15.764 8.289 25.508-21.7-15.765-21.7 15.765 8.289-25.508-21.699-15.764h26.821l8.289-25.51Z"/>
  </g>
  <defs>
    <clipPath id="a">
      <path fill="#fff" d="M0 0h512v512H0z"/>
    </clipPath>
  </defs>
</svg>
