<svg xmlns="http://www.w3.org/2000/svg" width="512" height="512" fill="none" viewBox="0 0 512 512">
  <g clip-path="url(#a)">
    <path fill="#F0F0F0" d="M256 512c141.385 0 256-114.615 256-256S397.385 0 256 0 0 114.615 0 256s114.615 256 256 256Z"/>
    <path fill="#0052B4" d="M8.819 322.783c14.812 54.959 47.457 102.593 91.355 136.322V322.783H8.819Zm224.92 188.243A259.29 259.29 0 0 0 256 512c118.279 0 217.805-80.221 247.181-189.217H233.739v188.243Zm269.442-321.809C473.805 80.221 374.279 0 256 0c-7.502 0-14.923.342-22.261.974v188.243h269.442ZM100.174 52.895c-43.898 33.73-76.543 81.363-91.355 136.322h91.355V52.894Z"/>
    <path fill="#D80027" d="M509.833 222.609H200.348V6.085a254.26 254.26 0 0 0-66.783 25.042v191.481H2.167A258.2 258.2 0 0 0 0 256c0 11.317.742 22.461 2.167 33.391h131.398v191.481a254.258 254.258 0 0 0 66.783 25.042V289.392h309.485A258.556 258.556 0 0 0 512 256c0-11.317-.744-22.461-2.167-33.391Z"/>
  </g>
  <defs>
    <clipPath id="a">
      <path fill="#fff" d="M0 0h512v512H0z"/>
    </clipPath>
  </defs>
</svg>
