<svg xmlns="http://www.w3.org/2000/svg" width="512" height="512" fill="none" viewBox="0 0 512 512">
  <g clip-path="url(#a)">
    <path fill="#F0F0F0" d="M256 512.001c141.385 0 256-114.615 256-256s-114.615-256-256-256-256 114.615-256 256 114.615 256 256 256Z"/>
    <path fill="#D80027" d="M339.147 189.218h-33.494c.277 3.681.434 7.395.434 11.13 0 24.764-6.19 48.767-16.981 65.853-3.329 5.27-8.923 12.712-16.411 17.732v-94.716h-33.391v94.716c-7.487-5.02-13.082-12.461-16.411-17.732-10.792-17.086-16.981-41.089-16.981-65.853 0-3.735.158-7.45.434-11.13h-33.494a189.872 189.872 0 0 0-.332 11.13c0 68.656 36.668 122.435 83.478 122.435 46.81 0 83.478-53.779 83.478-122.435.002-3.757-.115-7.467-.329-11.13Z"/>
    <path fill="#6DA544" d="M105.739 122.436h33.391v22.261h33.391v-22.261h33.391v22.261h33.391v-22.261h33.391v22.261h33.391v-22.261h33.391v22.261h33.391v-22.261h33.391v22.261h80.337C445.19 59.066 357.493.001 256 .001S66.81 59.066 25.402 144.697h80.337v-22.261Z"/>
    <path fill="#D80027" d="M406.261 367.305v22.261H372.87v-22.261h-33.391v22.261h-33.391v-22.261h-33.391v22.261h-33.391v-22.261h-33.391v22.261h-33.391v-22.261H139.13v22.261h-33.391v-22.261H25.402C66.81 452.936 154.506 512.001 256 512.001s189.19-59.065 230.598-144.696h-80.337Z"/>
  </g>
  <defs>
    <clipPath id="a">
      <path fill="#fff" d="M0 .001h512v512H0z"/>
    </clipPath>
  </defs>
</svg>
