<svg xmlns="http://www.w3.org/2000/svg" width="512" height="512" fill="none" viewBox="0 0 512 512">
  <g clip-path="url(#a)">
    <path fill="#F0F0F0" d="M256 512c141.385 0 256-114.615 256-256S397.385 0 256 0 0 114.615 0 256s114.615 256 256 256Z"/>
    <path fill="#A2001D" d="M256 0C145.929 0 52.094 69.472 15.923 166.957h480.155C459.906 69.472 366.071 0 256 0Z"/>
    <path fill="#000" d="M256 512c110.071 0 203.906-69.472 240.077-166.957H15.923C52.094 442.528 145.929 512 256 512Z"/>
    <path fill="#496E2D" d="M194.783 239.304c-.14 0-.277.009-.417.011v-.011h-48.937c2.481-9.586 11.179-16.696 21.528-16.696v-33.391c-30.687 0-55.652 24.966-55.652 55.652v27.827h83.478a5.571 5.571 0 0 1 5.565 5.565v11.13H89.043v33.391h144.696V278.26c0-21.48-17.476-38.956-38.956-38.956Zm83.478 50.087V189.217H244.87v133.566h55.652v-33.392h-22.261Zm111.304.001V189.217h-33.391v100.175h-11.131v-33.391h-33.391v66.783h100.174v-33.392h-22.261Z"/>
  </g>
  <defs>
    <clipPath id="a">
      <path fill="#fff" d="M0 0h512v512H0z"/>
    </clipPath>
  </defs>
</svg>
