<svg xmlns="http://www.w3.org/2000/svg" width="512" height="512" fill="none" viewBox="0 0 512 512">
  <g clip-path="url(#a)">
    <path fill="#F0F0F0" d="M256 512c141.385 0 256-114.615 256-256S397.385 0 256 0 0 114.615 0 256s114.615 256 256 256Z"/>
    <path fill="#0052B4" d="M352.393 200.348H288.13L256 144.696l-32.129 55.652h-64.264L191.741 256l-32.134 55.652h64.264L256 367.304l32.13-55.652h64.263L320.259 256l32.134-55.652ZM295.475 256l-19.736 34.188h-39.475L216.525 256l19.738-34.188h39.475L295.475 256ZM256 187.623l7.346 12.724h-14.69L256 187.623Zm-59.214 34.189h14.692l-7.346 12.724-7.346-12.724Zm0 68.376 7.347-12.724 7.346 12.724h-14.693ZM256 324.376l-7.345-12.724h14.691L256 324.376Zm59.214-34.188h-14.692l7.347-12.724 7.345 12.724Zm-14.692-68.376h14.692l-7.346 12.724-7.346-12.724Zm114.835-166.16H96.643a257.297 257.297 0 0 0-59.069 66.783h436.852a257.35 257.35 0 0 0-59.069-66.783ZM96.643 456.348h318.713a257.293 257.293 0 0 0 59.069-66.783H37.574a257.346 257.346 0 0 0 59.069 66.783Z"/>
  </g>
  <defs>
    <clipPath id="a">
      <path fill="#fff" d="M0 0h512v512H0z"/>
    </clipPath>
  </defs>
</svg>
