<svg xmlns="http://www.w3.org/2000/svg" width="512" height="512" fill="none" viewBox="0 0 512 512">
  <g clip-path="url(#a)">
    <path fill="#FFDA44" d="M256 512c141.385 0 256-114.615 256-256S397.385 0 256 0 0 114.615 0 256s114.615 256 256 256Z"/>
    <path fill="#6DA544" d="M411.856 52.92C368.689 19.739 314.654 0 256 0c-58.654 0-112.69 19.74-155.857 52.92L256 208.776 411.856 52.92Z"/>
    <path fill="#000" d="M52.919 100.144C19.74 143.311 0 197.346 0 256c0 58.654 19.74 112.69 52.92 155.858L208.777 256 52.919 100.144Z"/>
    <path fill="#6DA544" d="M100.143 459.08C143.311 492.261 197.346 512 256 512c58.654 0 112.689-19.74 155.857-52.92L256 303.224 100.143 459.08Z"/>
    <path fill="#000" d="M459.08 411.856C492.261 368.689 512 314.654 512 256c0-58.654-19.739-112.689-52.92-155.856L303.224 256 459.08 411.856Z"/>
  </g>
  <defs>
    <clipPath id="a">
      <path fill="#fff" d="M0 0h512v512H0z"/>
    </clipPath>
  </defs>
</svg>
