<svg xmlns="http://www.w3.org/2000/svg" width="512" height="512" fill="none" viewBox="0 0 512 512">
  <g clip-path="url(#a)">
    <path fill="#F0F0F0" d="M256 512c141.385 0 256-114.615 256-256S397.385 0 256 0 0 114.615 0 256s114.615 256 256 256Z"/>
    <path fill="#D80027" d="M459.098 411.875 303.223 256.001h-.001l155.876-155.877a258.207 258.207 0 0 0-47.222-47.222L256.001 208.777l-.001.001L100.125 52.902a258.222 258.222 0 0 0-47.222 47.222l155.875 155.874.001.001L52.902 411.876a258.196 258.196 0 0 0 47.222 47.222L256 303.223l.001-.001 155.875 155.875a258.324 258.324 0 0 0 47.222-47.222Z"/>
    <path fill="#FFDA44" d="M211.478 77.913 256 89.043l44.522-11.13V40.07l-17.809 8.904L256 22.26l-26.713 26.713-17.809-8.904v37.843Z"/>
    <path fill="#D80027" d="M211.478 77.913v27.828c0 34.08 44.522 44.522 44.522 44.522s44.522-10.443 44.522-44.522V77.913h-89.044Z"/>
  </g>
  <defs>
    <clipPath id="a">
      <path fill="#fff" d="M0 0h512v512H0z"/>
    </clipPath>
  </defs>
</svg>
