<svg xmlns="http://www.w3.org/2000/svg" width="512" height="512" fill="none" viewBox="0 0 512 512">
  <g clip-path="url(#a)">
    <path fill="#F0F0F0" d="M256 512.001c141.385 0 256-114.615 256-256s-114.615-256-256-256-256 114.615-256 256 114.615 256 256 256Z"/>
    <path fill="#000" d="M155.826 166.958h340.25C459.906 69.473 366.07.001 256 .001 185.306.001 121.313 28.66 74.99 74.99l80.836 91.968Z"/>
    <path fill="#6DA544" d="M155.826 345.044h340.25C459.906 442.529 366.07 512.001 256 512.001c-70.694 0-134.687-28.659-181.01-74.989l80.836-91.968Z"/>
    <path fill="#D80027" d="M74.98 74.981c-99.975 99.974-99.975 262.065 0 362.04L256 256.001 74.98 74.981Z"/>
    <path fill="#F0F0F0" d="m101.605 200.349 14.049 29.379 31.729-7.333-14.21 29.301 25.515 20.234-31.767 7.159.088 32.564-25.404-20.373-25.404 20.373.089-32.564-31.768-7.159 25.515-20.234-14.209-29.301 31.727 7.333 14.05-29.379Z"/>
  </g>
  <defs>
    <clipPath id="a">
      <path fill="#fff" d="M0 .001h512v512H0z"/>
    </clipPath>
  </defs>
</svg>
