<svg xmlns="http://www.w3.org/2000/svg" width="512" height="512" fill="none" viewBox="0 0 512 512">
  <g clip-path="url(#a)">
    <path fill="#0052B4" d="M256 512c141.385 0 256-114.615 256-256S397.385 0 256 0 0 114.615 0 256s114.615 256 256 256Z"/>
    <path fill="#F0F0F0" d="m112.449 155.826 5.526 17.008h17.88l-14.465 10.509 5.525 17.005-14.466-10.509-14.467 10.509 5.527-17.005-14.466-10.509h17.879l5.527-17.008Zm55.652-16.694 5.526 17.007h17.88l-14.465 10.509 5.525 17.005-14.466-10.509-14.466 10.509 5.526-17.005-14.465-10.509h17.88l5.525-17.007Zm55.652-16.696 5.526 17.007h17.88l-14.465 10.51 5.525 17.005-14.466-10.51-14.466 10.51 5.526-17.005-14.465-10.51h17.88l5.525-17.007Zm175.798 33.39-5.526 17.008h-17.88l14.466 10.509-5.526 17.005 14.466-10.509 14.467 10.509-5.527-17.005 14.466-10.509h-17.88l-5.526-17.008Zm-55.652-16.694-5.526 17.007h-17.88l14.466 10.509-5.526 17.005 14.466-10.509 14.466 10.509-5.526-17.005 14.465-10.509h-17.88l-5.525-17.007Zm-55.652-16.696-5.526 17.007h-17.88l14.465 10.51-5.525 17.005 14.466-10.51 14.466 10.51-5.526-17.005 14.465-10.51h-17.88l-5.525-17.007Z"/>
    <path fill="#FFDA44" d="M300.522 267.13 256 211.478l-22.261 11.13v22.261l-33.391 22.261h-22.261v28.759c32.628 13.212 55.652 45.181 55.652 82.546H256v-22.261l22.261-22.261 22.261 22.261 22.261-22.261v-22.261l22.261-33.391-44.522-11.131Z"/>
  </g>
  <defs>
    <clipPath id="a">
      <path fill="#fff" d="M0 0h512v512H0z"/>
    </clipPath>
  </defs>
</svg>
