<svg xmlns="http://www.w3.org/2000/svg" width="512" height="512" fill="none" viewBox="0 0 512 512">
  <g clip-path="url(#a)">
    <path fill="#F0F0F0" d="M496.077 345.043C506.367 317.31 512 287.314 512 256c0-31.314-5.633-61.31-15.923-89.043L256 144.696 15.923 166.957C5.633 194.69 0 224.686 0 256c0 31.314 5.633 61.31 15.923 89.043L256 367.304l240.077-22.261Z"/>
    <path fill="#D80027" d="M256 512c110.07 0 203.906-69.472 240.076-166.957H15.922C52.094 442.528 145.928 512 256 512Z"/>
    <path fill="#6DA544" d="M256 0C145.928 0 52.094 69.472 15.922 166.957h480.155C459.906 69.472 366.07 0 256 0Z"/>
    <path fill="#000" d="M74.98 74.98c-99.974 99.974-99.974 262.065 0 362.04l91.976-91.976V166.957L74.98 74.981Z"/>
  </g>
  <defs>
    <clipPath id="a">
      <path fill="#fff" d="M0 0h512v512H0z"/>
    </clipPath>
  </defs>
</svg>
