<svg xmlns="http://www.w3.org/2000/svg" width="512" height="512" fill="none" viewBox="0 0 512 512">
  <g clip-path="url(#a)">
    <path fill="#D80027" d="M256 512c141.385 0 256-114.615 256-256S397.385 0 256 0 0 114.615 0 256s114.615 256 256 256Z"/>
    <path fill="#FFDA44" d="m381.197 256-51.155 24.062 27.241 49.547-55.553-10.629-7.036 56.116-38.695-41.27-38.692 41.27-7.039-56.116-55.548 10.627 27.24-49.547L130.803 256l51.157-24.061-27.24-49.548 55.546 10.63 7.043-56.117 38.69 41.271 38.697-41.271 7.034 56.117 55.555-10.63-27.242 49.551L381.197 256Z"/>
    <path fill="#D80027" d="M256 333.913c43.03 0 77.913-34.883 77.913-77.913 0-43.03-34.883-77.913-77.913-77.913-43.03 0-77.913 34.883-77.913 77.913 0 43.03 34.883 77.913 77.913 77.913Z"/>
    <path fill="#FFDA44" d="M217.043 256c-1.877 0-3.73.096-5.559.278a44.33 44.33 0 0 0 10.419 28.341 78.084 78.084 0 0 1 15.053-24.922A55.357 55.357 0 0 0 217.043 256Zm23.982 41.933A44.419 44.419 0 0 0 256 300.522c5.256 0 10.295-.917 14.975-2.589-2.551-10.012-7.818-18.95-14.975-25.974-7.157 7.023-12.424 15.962-14.975 25.974Zm53.53-64.187c-7.698-13.306-22.075-22.268-38.555-22.268s-30.857 8.961-38.555 22.268A77.402 77.402 0 0 1 256 244.222a77.396 77.396 0 0 1 38.555-10.476Zm-19.513 25.952a78.062 78.062 0 0 1 15.053 24.922 44.33 44.33 0 0 0 10.419-28.341 55.832 55.832 0 0 0-5.559-.278 55.33 55.33 0 0 0-19.913 3.697Z"/>
  </g>
  <defs>
    <clipPath id="a">
      <path fill="#fff" d="M0 0h512v512H0z"/>
    </clipPath>
  </defs>
</svg>
