<svg xmlns="http://www.w3.org/2000/svg" width="512" height="512" fill="none" viewBox="0 0 512 512">
  <g clip-path="url(#a)">
    <path fill="#F0F0F0" d="M256 512c141.385 0 256-114.615 256-256S397.385 0 256 0 0 114.615 0 256s114.615 256 256 256Z"/>
    <path fill="#F0F0F0" d="M58.516 93.092h394.968a257.414 257.414 0 0 0-50.277-46.545H108.793a257.341 257.341 0 0 0-50.277 46.545ZM0 256c0 7.847.373 15.605 1.064 23.273h509.872A259.157 259.157 0 0 0 512 256c0-7.847-.373-15.605-1.064-23.272H1.064A259.117 259.117 0 0 0 0 256Zm27.916 116.363h456.168a254.3 254.3 0 0 0 18.276-46.544H9.64a254.267 254.267 0 0 0 18.276 46.544Zm80.877 93.092h294.413a257.414 257.414 0 0 0 50.277-46.545H58.516a257.495 257.495 0 0 0 50.277 46.545ZM9.639 186.182H502.36a254.256 254.256 0 0 0-18.277-46.545H27.916a254.33 254.33 0 0 0-18.277 46.545Z"/>
    <path fill="#D80027" d="M122.436 46.545h280.772C361.568 17.227 310.798 0 256.001 0c-33.391 0-91.925 17.227-133.565 46.545Zm122.434 93.092h239.214a256.306 256.306 0 0 0-30.6-46.545H244.87v46.545Zm0 93.091h266.066a255.13 255.13 0 0 0-8.575-46.545H244.87v46.545ZM9.64 325.819h492.72a255.03 255.03 0 0 0 8.576-46.545H1.064a255.045 255.045 0 0 0 8.576 46.545Zm48.876 93.089h394.968a256.41 256.41 0 0 0 30.6-46.545H27.916a256.306 256.306 0 0 0 30.6 46.545ZM256 512c54.797 0 105.567-17.227 147.207-46.545H108.793C150.433 494.773 201.203 512 256 512Z"/>
    <path fill="#0052B4" d="M9.64 186.182c-4.243 15-7.136 30.563-8.576 46.545H256V0C138.82 0 40.031 78.732 9.64 186.182Z"/>
    <path fill="#F0F0F0" d="m152.388 66.783 16.575 51.015h53.646l-43.398 31.532 16.574 51.018-43.397-31.53-43.399 31.53 16.578-51.018-43.398-31.532h53.643l16.576-51.015Z"/>
  </g>
  <defs>
    <clipPath id="a">
      <path fill="#fff" d="M0 0h512v512H0z"/>
    </clipPath>
  </defs>
</svg>
