<svg xmlns="http://www.w3.org/2000/svg" width="512" height="512" fill="none" viewBox="0 0 512 512">
  <g clip-path="url(#a)">
    <path fill="#D80027" d="M512 256c0 141.384-114.616 256-256 256C114.616 512 0 397.384 0 256c11.13 0 256-33.391 256-33.391L512 256Z"/>
    <path fill="#0052B4" d="M0 256C0 114.616 114.616 0 256 0c141.384 0 256 114.616 256 256"/>
    <path fill="#FFDA44" d="M189.217 178.087c0-18.441-14.95-33.391-33.391-33.391-8.555 0-16.352 3.22-22.261 8.509v-19.64h11.13v-22.261h-11.13v-11.13h-22.261v11.13h-11.13v22.261h11.13v19.64c-5.909-5.289-13.706-8.509-22.26-8.509-18.442 0-33.392 14.95-33.392 33.391 0 9.887 4.301 18.767 11.13 24.882v19.64h111.304v-19.64c6.831-6.115 11.131-14.995 11.131-24.882Z"/>
  </g>
  <defs>
    <clipPath id="a">
      <path fill="#fff" d="M0 0h512v512H0z"/>
    </clipPath>
  </defs>
</svg>
