<svg xmlns="http://www.w3.org/2000/svg" width="512" height="512" fill="none" viewBox="0 0 512 512">
  <g clip-path="url(#a)">
    <path fill="#F0F0F0" d="M256 512c141.385 0 256-114.615 256-256S397.385 0 256 0 0 114.615 0 256s114.615 256 256 256Z"/>
    <path fill="#6DA544" d="M166.957 256v240.077C194.689 506.368 224.686 512 256 512c141.384 0 256-114.616 256-256 0-141.384-345.043 0-345.043 0Z"/>
    <path fill="#D80027" d="M256 0c-31.314 0-61.311 5.633-89.043 15.923V256H512C512 114.616 397.384 0 256 0Z"/>
  </g>
  <defs>
    <clipPath id="a">
      <path fill="#fff" d="M0 0h512v512H0z"/>
    </clipPath>
  </defs>
</svg>
