<svg xmlns="http://www.w3.org/2000/svg" width="512" height="512" fill="none" viewBox="0 0 512 512">
  <g clip-path="url(#a)">
    <path fill="#FFDA44" d="M367.304 25.402C333.648 9.128 295.891 0 256 0c-39.891 0-77.648 9.128-111.304 25.402L122.435 256l22.261 230.598C178.352 502.872 216.109 512 256 512c39.891 0 77.648-9.128 111.304-25.402L389.565 256 367.304 25.402Z"/>
    <path fill="#0052B4" d="M144.696 25.41C59.065 66.819 0 154.508 0 256s59.065 189.182 144.696 230.589V25.411Zm222.609 0v461.18c85.63-41.408 144.696-129.097 144.696-230.59S452.935 66.818 367.305 25.41Z"/>
    <path fill="#D80027" d="m328.348 278.261 16.695 22.261v-89.044l-16.695 22.261h-50.087v-50.087l22.261-16.695h-89.044l22.261 16.695v50.087h-50.087l-16.695-22.261v89.044l16.695-22.261h50.087v50.087l-22.261 16.695h89.044l-22.261-16.695v-50.087h50.087Z"/>
    <path fill="#F0F0F0" d="M322.783 244.87H267.13v-55.653h-22.26v55.653h-55.653v22.26h55.653v55.653h22.26V267.13h55.653v-22.26Z"/>
  </g>
  <defs>
    <clipPath id="a">
      <path fill="#fff" d="M0 0h512v512H0z"/>
    </clipPath>
  </defs>
</svg>
