<svg xmlns="http://www.w3.org/2000/svg" width="512" height="512" fill="none" viewBox="0 0 512 512">
  <g clip-path="url(#a)">
    <path fill="#D80027" d="M0 256c0 31.314 5.633 61.31 15.923 89.043L256 356.174l240.077-11.13C506.368 317.31 512 287.314 512 256s-5.632-61.31-15.923-89.043L256 155.826l-240.077 11.13C5.633 194.69 0 224.686 0 256Z"/>
    <path fill="#000" d="M256.001 0C145.93 0 52.095 69.472 15.924 166.957h480.155C459.907 69.472 366.072 0 256.001 0Z"/>
    <path fill="#496E2D" d="M496.078 345.043H15.924C52.094 442.527 145.93 512 256 512s203.906-69.473 240.077-166.957Z"/>
    <path fill="#D80027" d="m332.514 122.435-31.264-14.706 16.649-30.279-33.95 6.495-4.302-34.298-23.648 25.225-23.647-25.225-4.303 34.298L194.1 77.45l16.649 30.279-31.265 14.706h153.03Z"/>
  </g>
  <defs>
    <clipPath id="a">
      <path fill="#fff" d="M0 0h512v512H0z"/>
    </clipPath>
  </defs>
</svg>
