<svg xmlns="http://www.w3.org/2000/svg" width="512" height="512" fill="none" viewBox="0 0 512 512">
  <g clip-path="url(#a)">
    <path fill="#F0F0F0" d="M256 512c141.385 0 256-114.615 256-256S397.385 0 256 0 0 114.615 0 256s114.615 256 256 256Z"/>
    <path fill="#D80027" d="M244.869 256h267.13c0-23.107-3.08-45.489-8.819-66.783H244.869V256Zm0-133.565h229.556a257.329 257.329 0 0 0-59.069-66.783H244.869v66.783ZM256 512c60.249 0 115.626-20.824 159.357-55.652H96.643C140.374 491.176 195.75 512 256 512ZM37.573 389.565h436.852a254.492 254.492 0 0 0 28.755-66.783H8.818a254.46 254.46 0 0 0 28.755 66.783Z"/>
    <path fill="#0052B4" d="M256 256V0C114.616 0 0 114.616 0 256h256Z"/>
    <path fill="#FFDA44" d="M170.234 219.13c-34.962 0-63.304-28.343-63.304-63.304s28.343-63.304 63.304-63.304c10.901 0 21.158 2.757 30.113 7.609-14.048-13.737-33.26-22.217-54.461-22.217-43.029 0-77.913 34.883-77.913 77.913 0 43.03 34.884 77.913 77.913 77.913 21.201 0 40.413-8.48 54.461-22.217-8.955 4.85-19.211 7.607-30.113 7.607Z"/>
    <path fill="#FFDA44" d="m188.072 111.304 11.239 23.502 25.381-5.864-11.366 23.439 20.412 16.187-25.414 5.729.071 26.051-20.323-16.298-20.324 16.298.07-26.051-25.414-5.729 20.412-16.187-11.367-23.439 25.383 5.864 11.24-23.502Z"/>
  </g>
  <defs>
    <clipPath id="a">
      <path fill="#fff" d="M0 0h512v512H0z"/>
    </clipPath>
  </defs>
</svg>
