<svg xmlns="http://www.w3.org/2000/svg" width="512" height="512" fill="none" viewBox="0 0 512 512">
  <g clip-path="url(#a)">
    <path fill="#F0F0F0" d="M256 512c141.385 0 256-114.615 256-256S397.385 0 256 0 0 114.615 0 256s114.615 256 256 256Z"/>
    <path fill="#0052B4" d="M509.807 222.608c-7.062-53.986-31.312-106.152-72.787-147.627-41.475-41.475-93.642-65.726-147.628-72.788l.001 220.415h220.414ZM222.608 2.193C168.622 9.255 116.455 33.505 74.98 74.98 33.506 116.456 9.255 168.623 2.193 222.61l220.416-.001-.001-220.416ZM2.193 289.392C9.255 343.378 33.506 395.546 74.98 437.02c41.475 41.474 93.641 65.724 147.629 72.789l-.001-220.415-220.415-.002Zm287.2 220.414c53.986-7.062 106.152-31.312 147.627-72.787 41.475-41.475 65.725-93.641 72.787-147.627H289.393v220.414Z"/>
    <path fill="#F0F0F0" d="M343.388 162.438a6.177 6.177 0 0 1 6.172-6.171h13.224c20.904 0 37.911-17.006 37.911-37.909s-17.006-37.91-37.911-37.91h-12.558c-4.099-3.079-9.598-4.978-15.664-4.978-12.653 0-22.91 8.205-22.91 18.327 0 10.024 10.061 18.156 22.545 18.314l-.006.073h28.593a6.177 6.177 0 0 1 6.172 6.172 6.177 6.177 0 0 1-6.172 6.171H349.56c-20.904 0-37.909 17.006-37.909 37.909s17.004 37.91 37.909 37.91h51.134v-31.738H349.56a6.175 6.175 0 0 1-6.172-6.17Zm-200.346 0a6.177 6.177 0 0 1 6.172-6.171h13.224c20.904 0 37.911-17.006 37.911-37.909s-17.006-37.91-37.911-37.91H149.88c-4.099-3.079-9.598-4.978-15.664-4.978-12.653 0-22.91 8.205-22.91 18.327 0 10.024 10.061 18.156 22.545 18.314l-.006.073h28.594a6.177 6.177 0 0 1 6.172 6.172 6.177 6.177 0 0 1-6.172 6.171h-13.224c-20.904 0-37.909 17.006-37.909 37.909s17.004 37.91 37.909 37.91h51.133v-31.738h-51.134a6.175 6.175 0 0 1-6.172-6.17ZM343.388 398.62a6.177 6.177 0 0 1 6.172-6.171h13.224c20.904 0 37.911-17.006 37.911-37.909s-17.006-37.91-37.911-37.91h-12.558c-4.099-3.079-9.598-4.978-15.664-4.978-12.654 0-22.911 8.206-22.911 18.327 0 10.024 10.061 18.156 22.545 18.314l-.006.073h28.593a6.177 6.177 0 0 1 6.172 6.172 6.177 6.177 0 0 1-6.172 6.171h-13.224c-20.904 0-37.909 17.006-37.909 37.909s17.004 37.91 37.909 37.91h51.135v-31.737H349.56a6.177 6.177 0 0 1-6.172-6.171Zm-200.346 0a6.177 6.177 0 0 1 6.172-6.171h13.224c20.904 0 37.911-17.006 37.911-37.909s-17.006-37.91-37.911-37.91H149.88c-4.099-3.079-9.598-4.978-15.664-4.978-12.654 0-22.911 8.206-22.911 18.327 0 10.024 10.061 18.156 22.545 18.314l-.006.073h28.594a6.177 6.177 0 0 1 6.172 6.172 6.177 6.177 0 0 1-6.172 6.171h-13.224c-20.904 0-37.909 17.006-37.909 37.909s17.004 37.91 37.909 37.91h51.134v-31.737h-51.134a6.177 6.177 0 0 1-6.172-6.171Z"/>
  </g>
  <defs>
    <clipPath id="a">
      <path fill="#fff" d="M0 0h512v512H0z"/>
    </clipPath>
  </defs>
</svg>
