<svg xmlns="http://www.w3.org/2000/svg" width="512" height="512" fill="none" viewBox="0 0 512 512">
  <g clip-path="url(#a)">
    <path fill="#338AF3" d="M256 512c141.385 0 256-114.615 256-256S397.385 0 256 0 0 114.615 0 256s114.615 256 256 256Z"/>
    <path fill="#818085" d="M122.435 278.261h267.13v33.391h-267.13v-33.391Z"/>
    <path fill="#FFDA44" d="M166.957 178.087 256 189.219l89.043-11.132v-53.426l-35.617 17.809L256 89.043l-53.426 53.427-35.617-17.809v53.426Z"/>
    <path fill="#F0F0F0" d="M144.696 345.045h-33.392v-61.218l11.131-16.697-11.131-16.695v-38.956h33.392v133.566Zm255.999 0h-33.392V211.479h33.392v38.955l-11.131 16.976 11.131 16.419v61.216Z"/>
    <path fill="#ACABB1" d="M111.304 250.435h289.391v33.391H111.304v-33.391Z"/>
    <path fill="#F0F0F0" d="M256 389.565c-49.099 0-89.043-39.945-89.043-89.043V178.088h178.087v122.434c-.001 49.098-39.945 89.043-89.044 89.043Z"/>
    <path fill="#0052B4" d="M256 356.174c-30.687 0-55.652-24.966-55.652-55.652V211.48h111.304v89.042c0 30.686-24.965 55.652-55.652 55.652Z"/>
    <path fill="#D80027" d="M166.957 178.087h33.391v33.391h-33.391v-33.391Zm144.695 0h33.391v33.391h-33.391v-33.391Zm0 72.348h33.391v33.391h-33.391v-33.391Zm-144.695 0h33.391v33.391h-33.391v-33.391Zm72.347-72.348h33.391v33.391h-33.391v-33.391ZM256 356.174c-5.816 0-11.423-.9-16.696-2.562v34.361A89.03 89.03 0 0 0 256 389.566a89.03 89.03 0 0 0 16.696-1.593v-34.361A55.476 55.476 0 0 1 256 356.174Zm-54.908-46.618-26.648 26.648a89.353 89.353 0 0 0 19.314 27.908l23.6-23.6c-8.422-8.137-14.289-18.897-16.266-30.956Zm136.464 26.65-26.648-26.648c-1.978 12.058-7.844 22.817-16.265 30.957l23.6 23.6a89.4 89.4 0 0 0 19.313-27.909Z"/>
  </g>
  <defs>
    <clipPath id="a">
      <path fill="#fff" d="M0 0h512v512H0z"/>
    </clipPath>
  </defs>
</svg>
