<svg xmlns="http://www.w3.org/2000/svg" width="512" height="512" fill="none" viewBox="0 0 512 512">
  <g clip-path="url(#a)">
    <path fill="#F0F0F0" d="M256 512c141.385 0 256-114.615 256-256S397.385 0 256 0 0 114.615 0 256s114.615 256 256 256Z"/>
    <path fill="#D80027" d="M512.001 256c0-101.494-59.065-189.19-144.696-230.598v461.195C452.936 445.19 512.001 357.494 512.001 256Z"/>
    <path fill="#6DA544" d="M0 256c0 101.494 59.065 189.19 144.696 230.598V25.402C59.065 66.81 0 154.506 0 256Zm189.217 0c0 36.883 29.9 66.783 66.783 66.783s66.783-29.9 66.783-66.783v-22.261H189.217V256Z"/>
    <path fill="#FF9811" d="M345.043 211.478H278.26c0-12.294-9.967-22.261-22.261-22.261-12.294 0-22.261 9.967-22.261 22.261h-66.783c0 12.295 10.709 22.261 23.002 22.261h-.741c0 12.295 9.966 22.261 22.261 22.261 0 12.295 9.966 22.261 22.261 22.261h44.522c12.295 0 22.261-9.966 22.261-22.261 12.295 0 22.261-9.966 22.261-22.261h-.742c12.295 0 23.003-9.966 23.003-22.261Z"/>
  </g>
  <defs>
    <clipPath id="a">
      <path fill="#fff" d="M0 0h512v512H0z"/>
    </clipPath>
  </defs>
</svg>
