<svg xmlns="http://www.w3.org/2000/svg" width="512" height="512" fill="none" viewBox="0 0 512 512">
  <g clip-path="url(#a)">
    <path fill="#338AF3" d="M256 512c141.385 0 256-114.615 256-256S397.385 0 256 0 0 114.615 0 256s114.615 256 256 256Z"/>
    <path fill="#F0F0F0" d="m256 111.304 11.051 34.012h35.763l-28.931 21.021 11.049 34.011L256 179.328l-28.933 21.02 11.053-34.011-28.932-21.021h35.763L256 111.304ZM111.305 256.002l34.012-11.052v-35.764l21.021 28.934 34.011-11.051-21.02 28.933 21.02 28.93-34.011-11.052-21.021 28.933v-35.762l-34.012-11.049Zm144.698 144.694-11.052-34.012h-35.763l28.933-21.021-11.051-34.011 28.933 21.02 28.931-21.02-11.052 34.011 28.932 21.021h-35.762l-11.049 34.012Zm144.693-144.697-34.012 11.051v35.763l-21.021-28.933-34.011 11.051 21.02-28.932-21.02-28.931 34.011 11.052 21.021-28.934v35.763l34.012 11.05Z"/>
  </g>
  <defs>
    <clipPath id="a">
      <path fill="#fff" d="M0 0h512v512H0z"/>
    </clipPath>
  </defs>
</svg>
