<svg xmlns="http://www.w3.org/2000/svg" width="512" height="512" fill="none" viewBox="0 0 512 512">
  <g clip-path="url(#a)">
    <path fill="#0052B4" d="M256 512c31.314 0 61.311-5.632 89.043-15.923L356.174 256l-11.13-240.077C317.311 5.633 287.314 0 256 0s-61.311 5.633-89.043 15.923L155.826 256l11.13 240.077C194.689 506.368 224.686 512 256 512Z"/>
    <path fill="#A2001D" d="M0 256c0 110.071 69.472 203.906 166.957 240.077V15.923C69.472 52.093 0 145.929 0 256ZM345.043 15.923v480.155C442.528 459.906 512 366.071 512 256S442.528 52.094 345.043 15.923Z"/>
    <path fill="#FFDA44" d="M122.435 256h22.261v89.043h-22.261V256Zm-89.045 0h22.262v89.043H33.39V256Zm55.652 55.652c12.295 0 22.261-9.967 22.261-22.261 0-12.295-9.966-22.261-22.26-22.261-12.295 0-22.262 9.966-22.262 22.261 0 12.294 9.967 22.261 22.261 22.261Zm.001-89.044c6.147 0 11.13-4.983 11.13-11.13 0-6.147-4.983-11.13-11.13-11.13-6.147 0-11.13 4.983-11.13 11.13 0 6.147 4.983 11.13 11.13 11.13ZM66.782 322.783h44.522v22.261H66.782v-22.261Zm0-89.044h44.522V256H66.782v-22.261Zm22.26-100.174 7.884 24.26h25.508l-20.635 14.994 7.878 24.26-20.635-14.994-20.634 14.994 7.878-24.26-20.635-14.994H81.16l7.883-24.26Z"/>
  </g>
  <defs>
    <clipPath id="a">
      <path fill="#fff" d="M0 0h512v512H0z"/>
    </clipPath>
  </defs>
</svg>
