<svg xmlns="http://www.w3.org/2000/svg" width="512" height="512" fill="none" viewBox="0 0 512 512">
  <g clip-path="url(#a)">
    <path fill="#D80027" d="M256 512c141.385 0 256-114.615 256-256S397.385 0 256 0 0 114.615 0 256s114.615 256 256 256Z"/>
    <path fill="#FFDA44" d="M407.288 210.09H291.714L256 100.174 220.286 210.09H104.712l93.501 67.932-35.715 109.919L256 320.008l93.502 67.934-35.715-109.919 93.501-67.933Zm-182.906 59.429 12.077-37.169h39.081l12.078 37.169v.001L256 292.491l-31.617-22.971-.001-.001Zm43.926-59.429h-24.615L256 172.21l12.308 37.88Zm38.245 45.672-7.607-23.411h39.829l-32.222 23.411Zm-93.5-23.411-7.607 23.411-32.223-23.411h39.83Zm-8.212 97.31 12.308-37.879 19.915 14.468-32.223 23.411Zm70.095-23.41 19.915-14.468 12.308 37.879-32.223-23.411Z"/>
  </g>
  <defs>
    <clipPath id="a">
      <path fill="#fff" d="M0 0h512v512H0z"/>
    </clipPath>
  </defs>
</svg>
