<svg xmlns="http://www.w3.org/2000/svg" width="512" height="512" fill="none" viewBox="0 0 512 512">
  <g clip-path="url(#a)">
    <path fill="#F0F0F0" d="M256 512c141.385 0 256-114.615 256-256S397.385 0 256 0 0 114.615 0 256s114.615 256 256 256Z"/>
    <path fill="#FFDA44" d="m138.371 356.174-63.382 80.837C121.313 483.341 185.306 512 256 512c105.83 0 196.644-64.229 235.631-155.826h-353.26Z"/>
    <path fill="#496E2D" d="M492.029 156.753C453.26 64.662 362.188 0 256 0 185.306 0 121.313 28.659 74.99 74.989l64.109 81.764h352.93Z"/>
    <path fill="#000" d="M55.652 188.29v134.492h447.53C508.924 301.491 512 279.107 512 256c0-23.442-3.158-46.142-9.061-67.71H55.652Z"/>
    <path fill="#A2001D" d="M74.98 74.98c-99.975 99.974-99.975 262.065 0 362.04L256 256 74.98 74.98Z"/>
    <path fill="#FFDA44" d="m103.61 189.217 16.575 51.016h53.646l-43.398 31.532 16.574 51.018-43.397-31.531-43.4 31.531 16.579-51.018-43.398-31.532h53.642l16.577-51.016Z"/>
    <path fill="#F0F0F0" d="M55.107 256h97.024v44.522H55.107V256Z"/>
    <path fill="#000" d="m170.5 204.959-15.741-15.742-51.148 51.148-51.148-51.148-15.741 15.742 51.193 51.102-51.193 51.194 15.74 15.528 51.149-51.056 51.148 51.056 15.741-15.528-51.193-51.194 51.193-51.102Z"/>
  </g>
  <defs>
    <clipPath id="a">
      <path fill="#fff" d="M0 0h512v512H0z"/>
    </clipPath>
  </defs>
</svg>
