<svg xmlns="http://www.w3.org/2000/svg" width="512" height="512" fill="none" viewBox="0 0 512 512">
  <g clip-path="url(#a)">
    <path fill="#F0F0F0" d="M256 512c141.385 0 256-114.615 256-256S397.385 0 256 0 0 114.615 0 256s114.615 256 256 256Z"/>
    <path fill="#A2001D" d="M74.981 437.02a257.556 257.556 0 0 0 34.216 28.748l356.569-356.57a257.376 257.376 0 0 0-28.748-34.216 257.525 257.525 0 0 0-34.216-28.747L46.234 402.805a257.569 257.569 0 0 0 28.747 34.215Z"/>
    <path fill="#0052B4" d="M74.981 74.98c-80.764 80.764-96.268 202.056-46.545 298.398l344.942-344.94C277.036-21.287 155.743-5.78 74.981 74.98Z"/>
    <path fill="#496E2D" d="M437.018 437.02c80.762-80.762 96.266-202.055 46.545-298.398L138.621 483.564c96.341 49.723 217.634 34.219 298.397-46.544Z"/>
    <path fill="#FFDA44" d="m211.478 144.696-28.686 13.493 15.276 27.782-31.149-5.958-3.948 31.465-21.696-23.143-21.697 23.143-3.946-31.465-31.15 5.957 15.275-27.782-28.685-13.492 28.686-13.494-15.276-27.78 31.149 5.958 3.948-31.467 21.696 23.144 21.697-23.144 3.947 31.467 31.149-5.958-15.274 27.781 28.684 13.493Z"/>
  </g>
  <defs>
    <clipPath id="a">
      <path fill="#fff" d="M0 0h512v512H0z"/>
    </clipPath>
  </defs>
</svg>
