<svg xmlns="http://www.w3.org/2000/svg" width="513" height="512" fill="none" viewBox="0 0 513 512">
  <g clip-path="url(#a)">
    <path fill="#0052B4" d="M256.988 512c141.385 0 256-114.615 256-256S398.373 0 256.988 0s-256 114.615-256 256 114.615 256 256 256Z"/>
    <path fill="#FFDA44" d="M256.988 512c141.385 0 256-114.615 256-256S398.373 0 256.988 0s-256 114.615-256 256 114.615 256 256 256Z"/>
    <path fill="#0052B4" d="M256.988 0C123.104 0 13.246 102.781 1.963 233.739h510.051C500.73 102.781 390.872 0 256.988 0Zm0 512c133.884 0 243.742-102.781 255.026-233.739H1.963C13.246 409.219 123.104 512 256.988 512Z"/>
    <path fill="#F0F0F0" d="m212.468 345.043-28.686 13.494 15.275 27.781-31.149-5.959-3.947 31.467-21.697-23.143-21.696 23.143-3.947-31.467-31.15 5.958 15.276-27.781-28.686-13.493 28.687-13.493-15.277-27.78 31.149 5.958 3.949-31.467 21.695 23.143 21.698-23.143 3.946 31.467 31.15-5.958-15.275 27.781 28.685 13.492Z"/>
  </g>
  <defs>
    <clipPath id="a">
      <path fill="#fff" d="M.988 0h512v512h-512z"/>
    </clipPath>
  </defs>
</svg>
