<svg xmlns="http://www.w3.org/2000/svg" width="513" height="512" fill="none" viewBox="0 0 513 512">
  <g clip-path="url(#a)">
    <path fill="#F0F0F0" d="M256.988 512c141.385 0 256-114.615 256-256S398.373 0 256.988 0s-256 114.615-256 256 114.615 256 256 256Z"/>
    <path fill="#0052B4" d="m511.486 283.826-.006-.008-.001.008h.007Zm-.008 0 .001-.008L230.734 1.331a255.168 255.168 0 0 0-37.109 6.574C82.886 36.1.988 256 .988 256s358.398 239.835 399.285 212.164a256.89 256.89 0 0 0 23.493-17.953L257.383 283.826h254.095Z"/>
    <path fill="#D80027" d="M446.205 256 197.233 7.029C84.676 33.946.988 135.192.988 256c0 141.384 114.616 256 256 256 53.629 0 103.397-16.502 144.529-44.689L190.205 256h256Z"/>
    <path fill="#F0F0F0" d="m244.461 377.993-31.265-14.706 16.649-30.279-33.95 6.495-4.302-34.298-23.647 25.225-23.647-25.225-4.303 34.298-33.949-6.496 16.649 30.28-31.266 14.706 31.266 14.705-16.649 30.28 33.951-6.494 4.3 34.296 23.648-25.225 23.647 25.225 4.302-34.296 33.949 6.495-16.649-30.279 31.266-14.707Zm-20.863-236.01-22.74-10.695 12.109-22.023-24.693 4.724-3.129-24.946-17.199 18.347-17.199-18.347-3.13 24.946-24.693-4.724 12.11 22.023-22.741 10.695 55.653 11.132 55.652-11.132Z"/>
    <path fill="#F0F0F0" d="M234.728 141.983c0 36.883-29.9 66.783-66.783 66.783s-66.783-29.9-66.783-66.783"/>
  </g>
  <defs>
    <clipPath id="a">
      <path fill="#fff" d="M.988 0h512v512h-512z"/>
    </clipPath>
  </defs>
</svg>
