<svg xmlns="http://www.w3.org/2000/svg" width="513" height="512" fill="none" viewBox="0 0 513 512">
  <g clip-path="url(#a)">
    <path fill="#0052B4" d="M512.988 256c0 141.384-114.616 256-256 256-141.384 0-256-114.616-256-256 0 .061 256-255.972 256-256 141.384 0 256 114.616 256 256Z"/>
    <path fill="#F0F0F0" d="M256.304 256h.685v-.685l-.685.685Z"/>
    <path fill="#F0F0F0" d="M256.988 133.565V0h-.043C115.58.024.988 114.629.988 256h133.565v-75.211L209.765 256h46.539l.685-.685v-46.537l-75.213-75.213h75.212Z"/>
    <path fill="#D80027" d="M130.503 33.391a257.222 257.222 0 0 0-96.124 96.124V256h66.783V100.174h155.826V33.391H130.503Z"/>
    <path fill="#D80027" d="m256.988 224.519-90.953-90.953s-31.481.002-31.481 0v.002L256.987 256h.001v-31.481Zm187.33-34.56 5.525 17.006h17.881l-14.466 10.51 5.526 17.005-14.466-10.509-14.467 10.509 5.526-17.005-14.467-10.51h17.881l5.527-17.006Zm-63.919 122.434 8.289 25.51h26.821l-21.7 15.764 8.29 25.509-21.7-15.765-21.7 15.765 8.29-25.509-21.7-15.764h26.821l8.289-25.51Zm2.414-200.347 6.908 21.259h22.351l-18.084 13.135 6.908 21.258-18.083-13.139-18.082 13.139 6.907-21.258-18.082-13.135h22.35l6.907-21.259Zm-61.503 77.171 8.288 25.51h26.822l-21.7 15.764L343.01 256l-21.7-15.765L299.61 256l8.29-25.509-21.7-15.764h26.821l8.289-25.51Z"/>
  </g>
  <defs>
    <clipPath id="a">
      <path fill="#fff" d="M.988 0h512v512h-512z"/>
    </clipPath>
  </defs>
</svg>
