<svg xmlns="http://www.w3.org/2000/svg" width="513" height="512" fill="none" viewBox="0 0 513 512">
  <g clip-path="url(#a)">
    <path fill="#F0F0F0" d="M256.988 512c141.385 0 256-114.615 256-256S398.373 0 256.988 0s-256 114.615-256 256 114.615 256 256 256Z"/>
    <path fill="#338AF3" d="M256.989 0C155.495 0 67.799 59.065 26.391 144.696h461.195C446.179 59.065 358.482 0 256.989 0Zm0 512c101.493 0 189.19-59.065 230.598-144.696H26.391C67.799 452.935 155.495 512 256.989 512Z"/>
    <path fill="#FFDA44" d="M256.988 178.087c-43.03 0-77.913 34.883-77.913 77.913 0 43.03 34.883 77.913 77.913 77.913 43.03 0 77.913-34.883 77.913-77.913 0-43.03-34.883-77.913-77.913-77.913Zm0 122.435c-24.588 0-44.522-19.932-44.522-44.522s19.933-44.522 44.522-44.522S301.51 231.41 301.51 256s-19.934 44.522-44.522 44.522Z"/>
    <path fill="#0052B4" d="M295.546 267.13 256.988 256l-38.558 11.13-12.852 22.261h102.819l-12.851-22.261Z"/>
    <path fill="#338AF3" d="m256.988 200.348-25.705 44.522L256.988 256l25.705-11.13-25.705-44.522Z"/>
    <path fill="#6DA544" d="M218.431 267.13h77.116l-12.853-22.26h-51.41l-12.853 22.26Z"/>
  </g>
  <defs>
    <clipPath id="a">
      <path fill="#fff" d="M.988 0h512v512h-512z"/>
    </clipPath>
  </defs>
</svg>
