<svg xmlns="http://www.w3.org/2000/svg" width="513" height="512" fill="none" viewBox="0 0 513 512">
  <g clip-path="url(#a)">
    <path fill="#F0F0F0" d="M26.39 144.696C10.116 178.352.988 216.109.988 256c0 39.891 9.128 77.648 25.402 111.304l230.598 22.261 230.598-22.261c16.274-33.656 25.402-71.413 25.402-111.304 0-39.891-9.128-77.648-25.402-111.304l-230.598-22.261L26.39 144.696Z"/>
    <path fill="#6DA544" d="M26.4 367.304C67.804 452.935 155.493 512 256.987 512s189.183-59.065 230.589-144.696H26.399Z"/>
    <path fill="#FF9811" d="M26.4 144.696h461.177C446.171 59.065 358.481 0 256.988 0S67.805 59.065 26.399 144.696Zm230.588 200.347c49.177 0 89.043-39.866 89.043-89.043 0-49.177-39.866-89.043-89.043-89.043-49.177 0-89.043 39.866-89.043 89.043 0 49.177 39.866 89.043 89.043 89.043Z"/>
  </g>
  <defs>
    <clipPath id="a">
      <path fill="#fff" d="M.988 0h512v512h-512z"/>
    </clipPath>
  </defs>
</svg>
