<svg xmlns="http://www.w3.org/2000/svg" width="513" height="512" fill="none" viewBox="0 0 513 512">
  <g clip-path="url(#a)">
    <path fill="#FFDA44" d="M512.988 256c0 141.384-114.616 256-256 256-141.384 0-256-114.616-256-256 0 .061 256-255.972 256-256 141.384 0 256 114.616 256 256Z"/>
    <path fill="#0052B4" d="M256.988 122.435v86.343l-89.043-86.343h89.043ZM134.553 256h75.211l-75.211-100.174-11.13 77.913L134.553 256Z"/>
    <path fill="#F0F0F0" d="M256.304 256h.685v-.685l-.685.685Z"/>
    <path fill="#F0F0F0" d="M256.988 133.565V0h-.043C115.579.024.988 114.629.988 256h133.565v-75.211L209.764 256h46.54l.685-.685v-46.537l-75.213-75.213h75.212Z"/>
    <path fill="#D80027" d="m256.988 224.519-90.955-90.953h-31.48v.002L256.986 256h.002v-31.481Z"/>
    <path fill="#D80027" d="M130.503 33.391a256.528 256.528 0 0 0-28.316 18.72h10.504L84.929 72.285l10.602 32.637-27.762-20.17-2.954 2.147a256.77 256.77 0 0 0-30.436 42.616V256h66.783V100.174h155.826V33.391H130.503Z"/>
    <path fill="#0052B4" d="M110.349 46.152a256.484 256.484 0 0 0-8.164 5.959L84.93 72.285 67.77 84.75l-2.98 2.164a257.215 257.215 0 0 0-17.65 22.445 47.121 47.121 0 0 0 20.63 4.727c26.126 0 47.304-21.178 47.304-47.304a47.08 47.08 0 0 0-4.725-20.631Z"/>
    <path fill="#FFDA44" d="m64.791 86.915 2.979-2.164 27.762 20.171-10.603-32.637 27.76-20.174h-10.506a257.61 257.61 0 0 0-37.392 34.804ZM177.93 44.522l5.526 17.005h17.88l-14.465 10.511 5.523 17.005-14.464-10.51-14.465 10.51 5.522-17.005-14.465-10.511h17.881l5.527-17.005ZM67.771 155.826l5.526 17.005h17.88l-14.464 10.512 5.523 17.005-14.465-10.511-14.466 10.511 5.523-17.005-14.464-10.512h17.88l5.527-17.005Z"/>
  </g>
  <defs>
    <clipPath id="a">
      <path fill="#fff" d="M.988 0h512v512h-512z"/>
    </clipPath>
  </defs>
</svg>
