<svg xmlns="http://www.w3.org/2000/svg" width="513" height="512" fill="none" viewBox="0 0 513 512">
  <g clip-path="url(#a)">
    <path fill="#F0F0F0" d="M368.293 25.402C334.637 9.128 296.88 0 256.989 0c-39.891 0-77.648 9.128-111.304 25.402L123.424 256l22.261 230.598C179.341 502.872 217.098 512 256.989 512c39.891 0 77.648-9.128 111.304-25.402L390.554 256 368.293 25.402Z"/>
    <path fill="#6DA544" d="M145.684 25.411C60.054 66.817.988 154.506.988 256s59.065 189.183 144.696 230.589V25.411Zm222.609 0V486.59C453.924 445.183 512.989 357.493 512.989 256S453.924 66.817 368.293 25.411Zm-44.522 308.502-66.783-211.478-66.783 211.478h50.087v55.652h33.392v-55.652h50.087Z"/>
  </g>
  <defs>
    <clipPath id="a">
      <path fill="#fff" d="M.988 0h512v512h-512z"/>
    </clipPath>
  </defs>
</svg>
