<svg xmlns="http://www.w3.org/2000/svg" width="513" height="512" fill="none" viewBox="0 0 513 512">
  <g clip-path="url(#a)">
    <path fill="#F0F0F0" d="M256.988 512c141.385 0 256-114.615 256-256S398.373 0 256.988 0s-256 114.615-256 256 114.615 256 256 256Z"/>
    <path fill="#0052B4" d="M256.989 0C179.398 0 109.875 34.524 62.928 89.043h388.121C404.103 34.524 334.58 0 256.989 0ZM451.05 422.957H62.928C109.875 477.476 179.398 512 256.989 512c77.591 0 147.114-34.524 194.061-89.043Z"/>
    <path fill="#D80027" d="M475.414 122.435H38.562C14.733 161.32.988 207.053.988 256s13.745 94.681 37.574 133.565h436.852c23.829-38.884 37.574-84.618 37.574-133.565s-13.745-94.68-37.574-133.565Z"/>
    <path fill="#F0F0F0" d="M158.484 354.504c54.403 0 98.504-44.102 98.504-98.504 0-54.402-44.101-98.504-98.504-98.504-54.402 0-98.504 44.102-98.504 98.504 0 54.402 44.102 98.504 98.504 98.504Z"/>
    <path fill="#D80027" d="m158.484 157.496 22.101 68.021h71.638l-57.977 42.042 22.274 68.224-58.036-42.242-57.948 42.163 22.186-68.145-57.925-42.042h71.585l22.102-68.021Z"/>
  </g>
  <defs>
    <clipPath id="a">
      <path fill="#fff" d="M.988 0h512v512h-512z"/>
    </clipPath>
  </defs>
</svg>
