<svg xmlns="http://www.w3.org/2000/svg" width="512" height="512" fill="none" viewBox="0 0 512 512">
  <g clip-path="url(#a)">
    <path fill="#F0F0F0" d="M256 512c141.385 0 256-114.615 256-256S397.385 0 256 0 0 114.615 0 256s114.615 256 256 256Z"/>
    <path fill="#D80027" d="M0 256c0 97.035 53.99 181.455 133.565 224.873V31.127C53.99 74.545 0 158.965 0 256Z"/>
    <path fill="#D80027" d="M496.078 345.043C506.368 317.31 512 287.314 512 256c0-31.314-5.632-61.311-15.922-89.043H15.924C5.633 194.689 0 224.686 0 256c0 31.314 5.633 61.31 15.924 89.043L256 367.304l240.078-22.261Z"/>
    <path fill="#6DA544" d="M256 512c110.072 0 203.906-69.472 240.078-166.957H15.924C52.094 442.528 145.93 512 256 512Z"/>
    <path fill="#D80027" d="M0 256c0 118.279 80.221 217.805 189.217 247.181V8.819C80.221 38.195 0 137.72 0 256Z"/>
    <path fill="#F0F0F0" d="m156.617 112.654-23.611-23.611-15.74 15.742-15.74-15.742-23.61 23.611 15.74 15.741-15.743 15.742 23.611 23.611 15.741-15.742 15.741 15.742 23.611-23.611-15.741-15.742 15.741-15.741Z"/>
  </g>
  <defs>
    <clipPath id="a">
      <path fill="#fff" d="M0 0h512v512H0z"/>
    </clipPath>
  </defs>
</svg>
