<svg xmlns="http://www.w3.org/2000/svg" width="512" height="512" fill="none" viewBox="0 0 512 512">
  <g clip-path="url(#a)">
    <path fill="#FFDA44" d="M503.181 322.783C508.92 301.489 512 279.107 512 256s-3.08-45.489-8.819-66.783L233.739.974c-50.021 4.31-95.924 23-133.565 51.921L8.819 189.217C3.08 210.511 0 232.893 0 256c0 22.972 3.043 45.231 8.718 66.413l91.455 136.692c37.641 28.921 83.544 47.612 133.565 51.921l269.443-188.243Z"/>
    <path fill="#D80027" d="M8.82 322.783c14.811 54.959 47.457 102.593 91.354 136.322V322.783H8.819Zm224.919 188.243A259.29 259.29 0 0 0 256 512c118.279 0 217.805-80.221 247.181-189.217H233.739v188.243Zm269.442-321.809C473.805 80.221 374.279 0 256 0c-7.502 0-14.923.342-22.261.974v188.243h269.442ZM100.174 52.895c-43.897 33.73-76.543 81.363-91.355 136.322h91.355V52.895Z"/>
    <path fill="#0052B4" d="M509.833 222.609H200.348V6.085a254.26 254.26 0 0 0-66.783 25.042v191.481H2.167A258.556 258.556 0 0 0 0 256c0 11.317.744 22.461 2.167 33.391h131.398v191.481a254.258 254.258 0 0 0 66.783 25.042V289.392h309.485A258.556 258.556 0 0 0 512 256c0-11.317-.744-22.461-2.167-33.391Z"/>
  </g>
  <defs>
    <clipPath id="a">
      <path fill="#fff" d="M0 0h512v512H0z"/>
    </clipPath>
  </defs>
</svg>
