<svg xmlns="http://www.w3.org/2000/svg" width="512" height="512" fill="none" viewBox="0 0 512 512">
  <g clip-path="url(#a)">
    <path fill="#F0F0F0" d="M256 512c141.385 0 256-114.615 256-256S397.385 0 256 0 0 114.615 0 256s114.615 256 256 256Z"/>
    <path fill="#000" d="M155.825 166.957h340.25C459.905 69.472 366.069 0 255.999 0c-70.694 0-134.687 28.659-181.01 74.989l80.836 91.968Z"/>
    <path fill="#6DA544" d="M155.825 345.043h340.25C459.905 442.528 366.069 512 255.999 512c-70.694 0-134.687-28.659-181.01-74.989l80.836-91.968Z"/>
    <path fill="#D80027" d="M74.98 74.98c-99.974 99.974-99.974 262.065 0 362.04L256 256 74.98 74.98Z"/>
  </g>
  <defs>
    <clipPath id="a">
      <path fill="#fff" d="M0 0h512v512H0z"/>
    </clipPath>
  </defs>
</svg>
