<svg xmlns="http://www.w3.org/2000/svg" width="512" height="512" fill="none" viewBox="0 0 512 512">
  <g clip-path="url(#a)">
    <path fill="#F0F0F0" d="M256 512c141.385 0 256-114.615 256-256S397.385 0 256 0 0 114.615 0 256s114.615 256 256 256Z"/>
    <path fill="#0052B4" d="M0 256c0 141.384 114.616 256 256 256V256H0Z"/>
    <path fill="#D80027" d="M256 0c141.384 0 256 114.616 256 256H256V0Z"/>
    <path fill="#0052B4" d="m152.39 89.043 16.577 51.018h53.643l-43.398 31.53 16.576 51.018-43.398-31.531-43.398 31.531 16.576-51.018-43.398-31.53h53.643l16.577-51.018Z"/>
    <path fill="#D80027" d="m359.611 289.391 16.577 51.018h53.643l-43.399 31.53 16.577 51.018-43.398-31.531-43.398 31.531 16.576-51.018-43.398-31.53h53.643l16.577-51.018Z"/>
  </g>
  <defs>
    <clipPath id="a">
      <path fill="#fff" d="M0 0h512v512H0z"/>
    </clipPath>
  </defs>
</svg>
