<svg xmlns="http://www.w3.org/2000/svg" width="512" height="512" fill="none" viewBox="0 0 512 512">
  <g clip-path="url(#a)">
    <path fill="#F0F0F0" d="M256 512c141.385 0 256-114.615 256-256S397.385 0 256 0 0 114.615 0 256s114.615 256 256 256Z"/>
    <path fill="#D80027" d="M256 0v256L74.98 437.02C121.308 483.346 185.308 512 256 512c141.384 0 256-114.616 256-256C512 114.616 256 0 256 0Z"/>
    <path fill="#0052B4" d="M256 0C185.307 0 121.307 28.654 74.98 74.98L256 256h256C512 114.616 397.384 0 256 0Z"/>
    <path fill="#FFDA44" d="m175.291 256-31.264-14.706 16.649-30.279-33.95 6.495-4.302-34.297-23.648 25.224-23.647-25.224-4.303 34.297-33.95-6.496 16.65 30.28L22.26 256l31.265 14.706-16.65 30.279 33.953-6.494 4.299 34.296 23.648-25.224 23.648 25.224 4.302-34.296 33.948 6.495-16.648-30.279L175.291 256ZM68.273 100.174l10.404 14.543 17.045-5.399-10.618 14.388 10.404 14.543-16.966-5.651-10.617 14.387.133-17.88-16.965-5.652 17.048-5.399.132-17.88Zm0 264.841 10.404 14.543 17.045-5.4-10.618 14.389 10.404 14.543-16.966-5.651-10.617 14.387.133-17.88-16.965-5.652 17.048-5.399.132-17.88Zm148.393-132.42-10.403 14.543-17.046-5.401 10.618 14.389-10.404 14.544 16.966-5.652 10.618 14.387-.134-17.879 16.965-5.652-17.047-5.399-.133-17.88Z"/>
  </g>
  <defs>
    <clipPath id="a">
      <path fill="#fff" d="M0 0h512v512H0z"/>
    </clipPath>
  </defs>
</svg>
