<svg xmlns="http://www.w3.org/2000/svg" width="512" height="512" fill="none" viewBox="0 0 512 512">
  <g clip-path="url(#a)">
    <path fill="#0052B4" d="M512 256c0 141.384-114.616 256-256 256C114.616 512 0 397.384 0 256 0 256.061 256 .028 256 0c141.384 0 256 114.616 256 256Z"/>
    <path fill="#F0F0F0" d="M255.315 256H256v-.685l-.685.685Z"/>
    <path fill="#F0F0F0" d="M256 133.565V0h-.043C114.591.024 0 114.629 0 256h133.565v-75.211L208.776 256h46.54l.685-.685v-46.537l-75.213-75.213H256Z"/>
    <path fill="#D80027" d="M129.515 33.391a257.213 257.213 0 0 0-96.124 96.124V256h66.783V100.174H256V33.391H129.515Z"/>
    <path fill="#D80027" d="m255.999 224.519-90.955-90.953h-31.48v.002L255.997 256h.002v-31.481Z"/>
    <path fill="#ACABB1" d="m400.696 155.826-33.392 11.131-33.391-11.131L322.783 128l11.13-27.826h66.783L389.565 128l11.131 27.826Z"/>
    <path fill="#338AF3" d="M289.391 155.826V278.26c0 59.64 77.913 77.914 77.913 77.914s77.913-18.274 77.913-77.914V155.826H289.391Z"/>
    <path fill="#6DA544" d="M296.415 307.266c19.152 36.769 70.89 48.908 70.89 48.908s51.738-12.139 70.89-48.908l-70.89-118.048-70.89 118.048Z"/>
    <path fill="#FFDA44" d="m445.217 277.023-77.913-121.197-77.913 121.198v1.236c0 11.038 2.674 20.656 7.023 29.006l70.89-110.275 70.89 110.274c4.349-8.351 7.023-17.968 7.023-29.006v-1.236Z"/>
  </g>
  <defs>
    <clipPath id="a">
      <path fill="#fff" d="M0 0h512v512H0z"/>
    </clipPath>
  </defs>
</svg>
