<svg xmlns="http://www.w3.org/2000/svg" width="512" height="512" fill="none" viewBox="0 0 512 512">
  <g clip-path="url(#a)">
    <path fill="#F0F0F0" d="M256 512c141.385 0 256-114.615 256-256S397.385 0 256 0 0 114.615 0 256s114.615 256 256 256Z"/>
    <path fill="#D80027" d="M256 0C172.248 0 97.894 40.223 51.19 102.4h409.62C414.107 40.223 339.752 0 256 0Zm0 512c83.752 0 158.107-40.223 204.811-102.4H51.19C97.894 471.777 172.248 512 256 512ZM0 256a257.1 257.1 0 0 0 5.127 51.2h501.748A257.1 257.1 0 0 0 512 256c0-17.535-1.768-34.657-5.126-51.2H5.127A257.1 257.1 0 0 0 0 256Z"/>
    <path fill="#0052B4" d="M74.98 74.98c-99.975 99.974-99.975 262.065 0 362.04L256 256 74.98 74.98Z"/>
    <path fill="#F0F0F0" d="m103.61 189.217 16.575 51.016h53.646l-43.398 31.532 16.574 51.018-43.397-31.531-43.4 31.531 16.579-51.018-43.398-31.532h53.642l16.577-51.016Z"/>
  </g>
  <defs>
    <clipPath id="a">
      <path fill="#fff" d="M0 0h512v512H0z"/>
    </clipPath>
  </defs>
</svg>
