<svg xmlns="http://www.w3.org/2000/svg" width="512" height="512" fill="none" viewBox="0 0 512 512">
  <g clip-path="url(#a)">
    <path fill="#FFDA44" d="M256 512c141.385 0 256-114.615 256-256S397.385 0 256 0 0 114.615 0 256s114.615 256 256 256Z"/>
    <path fill="#D80027" d="M294.932 509.057c41.636-6.352 79.962-22.748 112.456-46.618L256 256l38.932 253.057ZM217.067 2.943C175.432 9.295 137.106 25.69 104.61 49.56L256 256 217.067 2.943ZM104.61 462.439c32.494 23.869 70.82 40.265 112.455 46.619L256 256 104.61 462.439ZM49.56 104.61C25.69 137.106 9.296 175.431 2.943 217.067L256 256 49.56 104.61ZM2.943 294.932c6.352 41.636 22.748 79.962 46.618 112.456L256 256 2.943 294.932Zm506.114-77.865c-6.353-41.635-22.748-79.961-46.618-112.456L256 256l253.057-38.933ZM407.388 49.559c-32.495-23.87-70.82-40.264-112.456-46.616L256 256 407.388 49.559Zm55.053 357.83c23.869-32.495 40.264-70.822 46.618-112.456L256 256l206.441 151.389Z"/>
    <path fill="#D80027" d="M256 345.043c49.177 0 89.043-39.866 89.043-89.043 0-49.177-39.866-89.043-89.043-89.043-49.177 0-89.043 39.866-89.043 89.043 0 49.177 39.866 89.043 89.043 89.043Z"/>
    <path fill="#FFDA44" d="M256 322.783c36.883 0 66.783-29.9 66.783-66.783s-29.9-66.783-66.783-66.783-66.783 29.9-66.783 66.783 29.9 66.783 66.783 66.783Z"/>
  </g>
  <defs>
    <clipPath id="a">
      <path fill="#fff" d="M0 0h512v512H0z"/>
    </clipPath>
  </defs>
</svg>
