<svg xmlns="http://www.w3.org/2000/svg" width="512" height="512" fill="none" viewBox="0 0 512 512">
  <g clip-path="url(#a)">
    <path fill="#FFDA44" d="m138.771 483.645 188.065-156.808 156.808-188.065c-24.38-47.248-63.038-85.927-110.267-110.338L185.163 185.165 28.433 373.377c24.41 47.231 63.089 85.888 110.338 110.268Z"/>
    <path fill="#D80027" d="M437.027 437.028c80.766-80.767 96.271-202.064 46.546-298.41L138.617 483.574c96.346 49.724 217.644 34.219 298.41-46.546Z"/>
    <path fill="#6DA544" d="M74.973 74.973c-80.766 80.766-96.27 202.064-46.547 298.41L373.383 28.427C277.037-21.298 155.739-5.792 74.973 74.973Z"/>
  </g>
  <defs>
    <clipPath id="a">
      <path fill="#fff" d="M0 0h512.001v512.001H0z"/>
    </clipPath>
  </defs>
</svg>
