<svg xmlns="http://www.w3.org/2000/svg" width="512" height="512" fill="none" viewBox="0 0 512 512">
  <g clip-path="url(#a)">
    <path fill="#F0F0F0" d="M256 512c141.385 0 256-114.615 256-256S397.385 0 256 0 0 114.615 0 256s114.615 256 256 256Z"/>
    <path fill="#D80027" d="M256 0C255.761-.18-.068 255.933 0 256 0 114.616 114.616 0 256 0Zm0 0c.239-.18 256.068 255.932 256 256C512 114.616 397.384 0 256 0Z"/>
    <path fill="#0052B4" d="M256 512c-.239.18-256.068-255.932-256-256 0 141.384 114.616 256 256 256Zm0 0c.239.18 256.068-255.932 256-256 0 141.384-114.616 256-256 256Z"/>
    <path fill="#FFDA44" d="m256 133.565 27.628 85.029h89.405l-72.331 52.55 27.628 85.03L256 303.623l-72.33 52.551 27.628-85.03-72.33-52.55h89.404L256 133.565Z"/>
  </g>
  <defs>
    <clipPath id="a">
      <path fill="#fff" d="M0 0h512v512H0z"/>
    </clipPath>
  </defs>
</svg>
