<svg xmlns="http://www.w3.org/2000/svg" width="512" height="512" fill="none" viewBox="0 0 512 512">
  <g clip-path="url(#a)">
    <path fill="#F0F0F0" d="M25.402 144.696C9.128 178.352 0 216.109 0 256c0 39.891 9.128 77.648 25.402 111.304L256 389.565l230.598-22.261C502.872 333.648 512 295.891 512 256c0-39.891-9.128-77.648-25.402-111.304L256 122.435 25.402 144.696Z"/>
    <path fill="#496E2D" d="M25.411 367.304C66.817 452.935 154.507 512 256 512s189.183-59.065 230.589-144.696H25.411Z"/>
    <path fill="#000" d="M25.411 144.696H486.59C445.183 59.065 357.494 0 256 0S66.817 59.065 25.411 144.696Z"/>
    <path fill="#D80027" d="M74.98 74.98c-99.975 99.974-99.975 262.065 0 362.04L256 256 74.98 74.98ZM322.783 256c0-37.298 26.213-68.457 61.217-76.101a78.151 78.151 0 0 0-16.696-1.812c-43.031 0-77.913 34.882-77.913 77.913s34.882 77.913 77.913 77.913c5.733 0 11.315-.637 16.696-1.812-35.004-7.644-61.217-38.803-61.217-76.101Z"/>
    <path fill="#D80027" d="m387.273 205.913 11.053 34.014h35.761l-28.932 21.018 11.052 34.012-28.934-21.02-28.931 21.02 11.053-34.012-28.934-21.018h35.761l11.051-34.014Z"/>
  </g>
  <defs>
    <clipPath id="a">
      <path fill="#fff" d="M0 0h512v512H0z"/>
    </clipPath>
  </defs>
</svg>
