<svg xmlns="http://www.w3.org/2000/svg" width="512" height="512" fill="none" viewBox="0 0 512 512">
  <g clip-path="url(#a)">
    <path fill="#D80027" d="M512 256c0 141.384-114.616 256-256 256C114.616 512 0 397.384 0 256L256 0c141.384 0 256 114.616 256 256Z"/>
    <path fill="#0052B4" d="M256 256V0C114.616 0 0 114.616 0 256h256Z"/>
    <path fill="#F0F0F0" d="m205.055 166.957 4.145 12.755h13.41l-10.85 7.881 4.145 12.755-10.85-7.883-10.85 7.883 4.145-12.755-10.85-7.881h13.41l4.145-12.755ZM137.699 66.783l6.907 21.26h22.352l-18.084 13.134 6.909 21.258-18.084-13.139-18.083 13.139 6.908-21.258-18.083-13.135h22.35l6.908-21.259Zm66.784 22.26 6.907 21.26h22.351l-18.083 13.135 6.907 21.258-18.082-13.139-18.083 13.139 6.908-21.258-18.083-13.135h22.35l6.908-21.26Zm-52.789 89.044 6.908 21.259h22.35l-18.083 13.135 6.908 21.258-18.083-13.138-18.083 13.138 6.908-21.258-18.083-13.135h22.351l6.907-21.259Zm-58.517-55.651 6.908 21.259h22.351l-18.084 13.135 6.908 21.258-18.083-13.138-18.082 13.138 6.907-21.258-18.082-13.135h22.35l6.907-21.259Z"/>
  </g>
  <defs>
    <clipPath id="a">
      <path fill="#fff" d="M0 0h512v512H0z"/>
    </clipPath>
  </defs>
</svg>
