<svg xmlns="http://www.w3.org/2000/svg" width="512" height="512" fill="none" viewBox="0 0 512 512">
  <g clip-path="url(#a)">
    <path fill="#FFDA44" d="M256 512c141.385 0 256-114.615 256-256S397.385 0 256 0 0 114.615 0 256s114.615 256 256 256Z"/>
    <path fill="#6DA544" d="M155.826 166.957h340.25C459.906 69.472 366.07 0 256 0 185.306 0 121.313 28.659 74.99 74.989l80.836 91.968Zm0 178.086h340.25C459.906 442.528 366.07 512 256 512c-70.694 0-134.687-28.659-181.01-74.989l80.836-91.968Z"/>
    <path fill="#D80027" d="M74.98 74.98c-99.975 99.974-99.975 262.065 0 362.04L256 256 74.98 74.98Z"/>
    <path fill="#000" d="m325.074 211.478 11.051 34.012h35.762l-28.932 21.02 11.051 34.012-28.932-21.021-28.932 21.021 11.05-34.012-28.931-21.02h35.762l11.051-34.012Zm111.305 0 11.05 34.012h35.762l-28.931 21.02 11.05 34.012-28.931-21.021-28.933 21.021 11.051-34.012-28.932-21.02h35.762l11.052-34.012Z"/>
  </g>
  <defs>
    <clipPath id="a">
      <path fill="#fff" d="M0 0h512v512H0z"/>
    </clipPath>
  </defs>
</svg>
