<svg xmlns="http://www.w3.org/2000/svg" width="512" height="512" fill="none" viewBox="0 0 512 512">
  <g clip-path="url(#a)">
    <path fill="#F0F0F0" d="M256 512.001c141.385 0 256-114.615 256-256s-114.615-256-256-256-256 114.615-256 256 114.615 256 256 256Z"/>
    <path fill="#D80027" d="M509.833 222.61H289.392V2.168A258.555 258.555 0 0 0 256 .001c-11.317 0-22.461.744-33.391 2.167v220.441H2.167A258.556 258.556 0 0 0 0 256.001c0 11.317.744 22.461 2.167 33.391h220.441v220.442a258.35 258.35 0 0 0 66.783 0V289.393h220.442A258.556 258.556 0 0 0 512 256.001c0-11.317-.744-22.461-2.167-33.391Z"/>
    <path fill="#000" d="M378.435 89.044c-20.746 0-38.177 14.189-43.119 33.391l43.119 11.13 43.119-11.13c-4.942-19.201-22.373-33.391-43.119-33.391Zm-44.522 100.174 55.652 11.13v-23.663c15.645-4.028 27.959-16.345 31.986-31.989l-43.116-11.13h-55.652l11.13 33.391v22.261Z"/>
    <path fill="#ACABB1" d="M421.554 122.436h-98.771v44.522h11.13v-22.261h87.638a44.582 44.582 0 0 0 1.406-11.13c0-3.844-.487-7.574-1.403-11.131Z"/>
    <path fill="#000" d="M144.696 89.044c-20.746 0-38.177 14.189-43.119 33.391l43.119 11.13 43.119-11.13c-4.942-19.201-22.373-33.391-43.119-33.391Zm-44.522 100.174 55.652 11.13v-23.663c15.645-4.028 27.959-16.345 31.986-31.989l-43.116-11.13H89.043l11.13 33.391v22.261h.001Z"/>
    <path fill="#ACABB1" d="M187.815 122.436H89.043v44.522h11.13v-22.261h87.638a44.582 44.582 0 0 0 1.406-11.13c0-3.844-.486-7.574-1.402-11.131Z"/>
    <path fill="#000" d="M378.435 311.653c-20.746 0-38.177 14.189-43.119 33.391l43.119 11.13 43.119-11.13c-4.942-19.202-22.373-33.391-43.119-33.391Zm-44.522 100.174 55.652 11.13v-23.663c15.645-4.028 27.959-16.345 31.986-31.989l-43.116-11.13h-55.652l11.13 33.391v22.261Z"/>
    <path fill="#ACABB1" d="M421.554 345.044h-98.771v44.522h11.13v-22.261h87.638a44.582 44.582 0 0 0 1.406-11.13c0-3.843-.487-7.573-1.403-11.131Z"/>
    <path fill="#000" d="M144.696 311.653c-20.746 0-38.177 14.189-43.119 33.391l43.119 11.13 43.119-11.13c-4.942-19.202-22.373-33.391-43.119-33.391Zm-44.522 100.174 55.652 11.13v-23.663c15.645-4.028 27.959-16.345 31.986-31.989l-43.116-11.13H89.043l11.13 33.391v22.261h.001Z"/>
    <path fill="#ACABB1" d="M187.815 345.044H89.043v44.522h11.13v-22.261h87.638a44.582 44.582 0 0 0 1.406-11.13c0-3.843-.486-7.573-1.402-11.131Z"/>
  </g>
  <defs>
    <clipPath id="a">
      <path fill="#fff" d="M0 .001h512v512H0z"/>
    </clipPath>
  </defs>
</svg>
