<svg xmlns="http://www.w3.org/2000/svg" width="512" height="512" fill="none" viewBox="0 0 512 512">
  <g clip-path="url(#a)">
    <path fill="#6DA544" d="M256 512c141.385 0 256-114.615 256-256S397.385 0 256 0 0 114.615 0 256s114.615 256 256 256Z"/>
    <path fill="#F0F0F0" d="M144.696 306.087c0 18.441 14.95 33.391 33.391 33.391h100.174c0 15.368 12.458 27.826 27.826 27.826h33.391c15.368 0 27.826-12.458 27.826-27.826v-33.391H144.696Zm225.391-161.391v77.913c0 12.275-9.986 22.261-22.261 22.261v33.391c30.687 0 55.652-24.966 55.652-55.652v-77.913h-33.391Zm-239.304 77.913c0 12.275-9.986 22.261-22.261 22.261v33.391c30.687 0 55.652-24.966 55.652-55.652v-77.913h-33.391v77.913Z"/>
    <path fill="#F0F0F0" d="M320 144.696h33.391v77.913H320v-77.913Zm-50.087 44.521a5.571 5.571 0 0 1-5.565 5.565 5.572 5.572 0 0 1-5.565-5.565v-44.522h-33.391v44.522a5.571 5.571 0 0 1-5.565 5.565 5.572 5.572 0 0 1-5.565-5.565v-44.522H180.87v44.522c0 21.481 17.476 38.957 38.957 38.957a38.72 38.72 0 0 0 22.261-7.016 38.726 38.726 0 0 0 22.261 7.016c1.666 0 3.304-.117 4.915-.322-2.366 9.749-11.146 17.017-21.611 17.017v33.391c30.687 0 55.652-24.966 55.652-55.652v-77.913h-33.391v44.522h-.001Z"/>
    <path fill="#F0F0F0" d="M180.87 244.87h50.087v33.391H180.87V244.87Z"/>
  </g>
  <defs>
    <clipPath id="a">
      <path fill="#fff" d="M0 0h512v512H0z"/>
    </clipPath>
  </defs>
</svg>
