<svg xmlns="http://www.w3.org/2000/svg" width="512" height="512" fill="none" viewBox="0 0 512 512">
  <g clip-path="url(#a)">
    <path fill="#F0F0F0" d="M496.077 345.042C506.368 317.309 512 287.313 512 255.999c0-31.314-5.632-61.31-15.923-89.043L256 144.695 15.923 166.956C5.632 194.689 0 224.685 0 255.999c0 31.314 5.632 61.31 15.923 89.043L256 367.303l240.077-22.261Z"/>
    <path fill="#338AF3" d="M256 511.999c110.07 0 203.906-69.472 240.076-166.957H15.922C52.094 442.527 145.928 511.999 256 511.999Z"/>
    <path fill="#6DA544" d="M256-.001c-110.072 0-203.906 69.472-240.078 166.957h480.155C459.906 69.471 366.07-.001 256-.001Z"/>
  </g>
  <defs>
    <clipPath id="a">
      <path fill="#fff" d="M0-.001h512v512H0z"/>
    </clipPath>
  </defs>
</svg>
