<svg xmlns="http://www.w3.org/2000/svg" width="512" height="512" fill="none" viewBox="0 0 512 512">
  <g clip-path="url(#a)">
    <path fill="#F0F0F0" d="M256 512c141.385 0 256-114.615 256-256S397.385 0 256 0 0 114.615 0 256s114.615 256 256 256Z"/>
    <path fill="#D80027" d="M0 256.001C0 114.616 114.616 0 256 0c141.384 0 256 114.616 256 256.001"/>
    <path fill="#F0F0F0" d="M155.826 133.564c0-37.298 26.213-68.456 61.217-76.1a78.208 78.208 0 0 0-16.696-1.812c-43.031 0-77.913 34.882-77.913 77.913s34.882 77.913 77.913 77.913c5.733 0 11.315-.637 16.696-1.812-35.004-7.645-61.217-38.803-61.217-76.102ZM256 61.218l5.526 17.005h17.881l-14.467 10.51 5.526 17.006L256 95.229l-14.466 10.51 5.526-17.005-14.466-10.511h17.88L256 61.218Z"/>
    <path fill="#F0F0F0" d="m212.625 94.608 5.525 17.006h17.881l-14.466 10.51 5.526 17.005-14.466-10.509-14.468 10.509 5.527-17.005-14.467-10.51h17.881l5.527-17.006Zm86.75 0 5.527 17.006h17.88l-14.467 10.51 5.527 17.005-14.467-10.509-14.466 10.509 5.526-17.005-14.466-10.51h17.88l5.526-17.006Zm-16.694 50.087 5.526 17.006h17.88l-14.466 10.51 5.526 17.005-14.466-10.509-14.466 10.509 5.526-17.005-14.466-10.51h17.879l5.527-17.006Zm-53.362 0 5.525 17.006h17.882l-14.467 10.51 5.527 17.005-14.467-10.509-14.467 10.509 5.526-17.005-14.466-10.51h17.881l5.526-17.006Z"/>
  </g>
  <defs>
    <clipPath id="a">
      <path fill="#fff" d="M0 0h512v512H0z"/>
    </clipPath>
  </defs>
</svg>
