<svg xmlns="http://www.w3.org/2000/svg" width="512" height="512" fill="none" viewBox="0 0 512 512">
  <g clip-path="url(#a)">
    <path fill="#D80027" d="M233.739 278.261S75.131 74.945 74.981 74.981C121.306 28.654 185.306 0 256 0c141.384 0 256 114.616 256 256l-278.261 22.261Z"/>
    <path fill="#0052B4" d="M233.739 256S75.131 437.055 74.981 437.019C121.306 483.346 185.306 512 256 512c141.384 0 256-114.616 256-256H233.739Z"/>
    <path fill="#F0F0F0" d="M74.98 74.98c-99.975 99.974-99.975 262.065 0 362.04L256 256 74.98 74.98Z"/>
    <path fill="#FFDA44" d="M28.061 256.001a73.138 73.138 0 0 0-.235 5.564c0 39.956 32.392 72.348 72.348 72.348 39.956 0 72.348-32.392 72.348-72.348 0-1.874-.095-3.727-.235-5.564H28.061Zm72.113-33.392c12.294 0 22.261-9.967 22.261-22.261 0-12.294-9.967-22.261-22.261-22.261-12.294 0-22.26 9.967-22.26 22.261 0 12.294 9.966 22.261 22.26 22.261Z"/>
    <path fill="#D80027" d="M50.087 194.783v72.348c0 38.34 50.087 50.087 50.087 50.087s50.087-11.747 50.087-50.087v-72.348H50.087Z"/>
    <path fill="#338AF3" d="M100.198 293.92c-9.292-3.344-27.851-11.89-27.851-26.79v-50.087H128v50.087c0 14.949-18.557 23.474-27.802 26.79Z"/>
    <path fill="#F3F3F3" d="M111.304 244.87v-11.131l-11.13-5.565-11.132 5.565v11.131l-5.564 5.565v22.261h33.392v-22.261l-5.566-5.565Z"/>
  </g>
  <defs>
    <clipPath id="a">
      <path fill="#fff" d="M0 0h512v512H0z"/>
    </clipPath>
  </defs>
</svg>
