<svg xmlns="http://www.w3.org/2000/svg" width="512" height="512" fill="none" viewBox="0 0 512 512">
  <g clip-path="url(#a)">
    <path fill="#F0F0F0" d="M256 512.001c141.385 0 256-114.615 256-256s-114.615-256-256-256-256 114.615-256 256 114.615 256 256 256Z"/>
    <path fill="#0052B4" d="M256 512.001c141.384 0 256-114.616 256-256 0-31.314-5.632-61.311-15.923-89.043H15.923C5.633 194.69 0 224.687 0 256.001c0 141.384 114.616 256 256 256Z"/>
    <path fill="#D80027" d="M256 512.001c110.071 0 203.906-69.472 240.077-166.957H15.923C52.093 442.529 145.929 512.001 256 512.001Z"/>
    <path fill="#F0F0F0" d="M66.198 144.697v127.706c0 72.644 94.901 94.903 94.901 94.903s94.9-22.259 94.9-94.903V144.697h-189.8Z"/>
    <path fill="#D80027" d="M88.459 144.697v127.706c0 8.528 1.894 16.582 5.646 24.133h133.987c3.752-7.55 5.646-15.605 5.646-24.133V144.697H88.459Z"/>
    <path fill="#F0F0F0" d="M205.62 233.74h-33.39v-22.261h22.261v-22.261H172.23v-22.26h-22.261v22.26h-22.26v22.261h22.26v22.261h-33.392v22.261h33.392v22.261h22.261v-22.261h33.39V233.74Z"/>
    <path fill="#0052B4" d="M124.471 327.611c14.345 9.015 29.083 14.249 36.628 16.577 7.545-2.327 22.283-7.562 36.628-16.577 14.466-9.092 24.607-19.49 30.365-31.075a38.775 38.775 0 0 0-22.471-7.143c-3.048 0-6.009.361-8.856 1.024-6.033-13.708-19.728-23.285-35.665-23.285-15.937 0-29.633 9.577-35.665 23.285a38.993 38.993 0 0 0-8.856-1.024 38.77 38.77 0 0 0-22.47 7.143c5.754 11.584 15.895 21.982 30.362 31.075Z"/>
  </g>
  <defs>
    <clipPath id="a">
      <path fill="#fff" d="M0 .001h512v512H0z"/>
    </clipPath>
  </defs>
</svg>
