<svg xmlns="http://www.w3.org/2000/svg" width="512" height="512" fill="none" viewBox="0 0 512 512">
  <g clip-path="url(#a)">
    <path fill="#F0F0F0" d="M256 512c141.385 0 256-114.615 256-256S397.385 0 256 0 0 114.615 0 256s114.615 256 256 256Z"/>
    <path fill="#000" d="M74.98 437.02c-99.975-99.975-99.975-262.065 0-362.04C74.972 74.992 222.608 256 222.608 256L74.979 437.02Z"/>
    <path fill="#FFDA44" d="M222.609 256 33.953 128.513a255.118 255.118 0 0 0-15.44 31.763l95.51 95.725-95.506 95.73a254.82 254.82 0 0 0 15.426 31.741L222.609 256Z"/>
    <path fill="#6DA544" d="M509.833 222.609H222.602L74.978 74.984a256.99 256.99 0 0 0-41.025 53.53L161.192 256 33.943 383.47a256.966 256.966 0 0 0 41.035 53.545l147.624-147.624h287.231A258.529 258.529 0 0 0 512 256c0-11.317-.744-22.461-2.167-33.391Z"/>
    <path fill="#0052B4" d="M100.138 459.077C143.307 492.259 197.344 512 256 512c118.279 0 217.805-80.221 247.181-189.217H236.433L100.138 459.077Z"/>
    <path fill="#D80027" d="M503.181 189.217C473.805 80.221 374.279 0 256 0c-58.656 0-112.693 19.741-155.862 52.923l136.294 136.294h266.749Z"/>
  </g>
  <defs>
    <clipPath id="a">
      <path fill="#fff" d="M0 0h512v512H0z"/>
    </clipPath>
  </defs>
</svg>
