<svg xmlns="http://www.w3.org/2000/svg" width="512" height="512" fill="none" viewBox="0 0 512 512">
  <g clip-path="url(#a)">
    <path fill="#F0F0F0" d="M256 511.999c141.385 0 256-114.615 256-256s-114.615-256-256-256-256 114.615-256 256 114.615 256 256 256Z"/>
    <path fill="#D80027" d="M345.043 255.999c0 22.261-39.866 77.913-89.043 77.913-49.177 0-89.043-55.652-89.043-77.913 0-49.178 39.866-89.043 89.043-89.043 49.177 0 89.043 39.865 89.043 89.043Z"/>
    <path fill="#0052B4" d="M345.043 255.999c0 49.178-39.866 89.043-89.043 89.043-49.177 0-89.043-39.865-89.043-89.043"/>
    <path fill="#000" d="m350.375 334.707 23.607-23.607 15.739 15.738-23.607 23.608-15.739-15.739Zm-39.357 39.348 23.607-23.608 15.739 15.739-23.608 23.607-15.738-15.738Zm86.576 7.865 23.607-23.608 15.739 15.739-23.608 23.607-15.738-15.738Zm-39.357 39.353 23.608-23.607 15.738 15.739-23.607 23.607-15.739-15.739Zm15.745-62.958 23.608-23.607 15.738 15.739-23.607 23.607-15.739-15.739Zm-39.345 39.347 23.607-23.607 15.739 15.738-23.608 23.608-15.738-15.739Zm63.06-220.328-62.953-62.953 15.738-15.739 62.954 62.953-15.739 15.739Zm-62.965-15.731-23.607-23.608 15.738-15.738 23.607 23.608-15.738 15.738Zm39.346 39.355-23.607-23.607 15.738-15.738 23.607 23.607-15.738 15.738Zm7.865-86.579-23.607-23.608 15.738-15.738 23.608 23.607-15.739 15.739Zm39.368 39.36-23.608-23.607 15.739-15.739 23.607 23.608-15.738 15.738ZM90.755 358.271l62.953 62.953-15.738 15.738-62.954-62.953 15.739-15.738Zm62.949 15.726 23.608 23.608-15.738 15.737-23.608-23.607 15.738-15.738Zm-39.349-39.339 23.608 23.608-15.739 15.738-23.607-23.607 15.738-15.739Zm23.611-23.614 62.953 62.953-15.738 15.739-62.954-62.954 15.739-15.738Zm15.735-220.321-62.953 62.953-15.739-15.738 62.954-62.954 15.738 15.739Zm23.608 23.604-62.954 62.954-15.738-15.739 62.953-62.953 15.739 15.738Zm23.629 23.622-62.953 62.954-15.738-15.738 62.954-62.954 15.737 15.738Z"/>
  </g>
  <defs>
    <clipPath id="a">
      <path fill="#fff" d="M0-.001h512v512H0z"/>
    </clipPath>
  </defs>
</svg>
