<svg xmlns="http://www.w3.org/2000/svg" width="512" height="512" fill="none" viewBox="0 0 512 512">
  <g clip-path="url(#a)">
    <path fill="#F0F0F0" d="M256 512c141.385 0 256-114.615 256-256S397.385 0 256 0 0 114.615 0 256s114.615 256 256 256Z"/>
    <path fill="#000" d="M492.028 156.753C453.259 64.662 362.187 0 255.999 0c-70.694 0-134.687 28.659-181.01 74.989l64.109 81.764h352.93Z"/>
    <path fill="#496E2D" d="m139.825 354.32-64.837 82.691C121.312 483.341 185.305 512 256 512c106.546 0 197.878-65.094 236.424-157.68H139.825Z"/>
    <path fill="#A2001D" d="M55.652 188.29v134.492h447.53C508.924 301.491 512 279.107 512 256c0-23.442-3.158-46.142-9.061-67.71H55.652Z"/>
    <path fill="#0052B4" d="M74.98 74.98c-99.974 99.974-99.974 262.065 0 362.04L256 256 74.98 74.98Z"/>
    <path fill="#FFDA44" d="m83.385 192.352 31.245 43.601 51.128-16.245-31.811 43.193 31.245 43.603-50.908-16.907-31.812 43.192.35-53.643-50.91-16.909 51.124-16.244.35-53.641Z"/>
  </g>
  <defs>
    <clipPath id="a">
      <path fill="#fff" d="M0 0h512v512H0z"/>
    </clipPath>
  </defs>
</svg>
