<svg xmlns="http://www.w3.org/2000/svg" width="512" height="512" fill="none" viewBox="0 0 512 512">
  <g clip-path="url(#a)">
    <path fill="#FFDA44" d="M0 256c0 31.314 5.633 61.31 15.923 89.043L256 367.304l240.077-22.261C506.367 317.31 512 287.314 512 256c0-31.314-5.633-61.31-15.923-89.043L256 144.696 15.923 166.957C5.633 194.69 0 224.686 0 256Z"/>
    <path fill="#D80027" d="M496.078 166.957C459.907 69.473 366.072 0 256.001 0S52.095 69.473 15.924 166.957h480.154ZM15.924 345.043C52.094 442.527 145.93 512 256 512s203.906-69.473 240.077-166.957H15.924Z"/>
  </g>
  <defs>
    <clipPath id="a">
      <path fill="#fff" d="M0 0h512v512H0z"/>
    </clipPath>
  </defs>
</svg>
