<svg xmlns="http://www.w3.org/2000/svg" width="513" height="512" fill="none" viewBox="0 0 513 512">
  <g clip-path="url(#a)">
    <path fill="#FFDA44" d="M379.013 31.128C342.642 11.284 300.928.001 256.578.001c-44.35 0-86.064 11.283-122.435 31.127l-22.261 224.873 22.261 224.873c36.371 19.844 78.085 31.127 122.435 31.127 44.35 0 86.064-11.283 122.435-31.127l22.261-224.873-22.261-224.873Z"/>
    <path fill="#338AF3" d="M134.143 480.872V31.127C54.567 74.547.578 158.966.578 256.001s53.99 181.454 133.565 224.871Z"/>
    <path fill="#6DA544" d="M512.579 256.001c0-97.035-53.989-181.454-133.565-224.874v449.745c79.576-43.417 133.565-127.836 133.565-224.871Zm-311.653 66.783-44.523-66.783 44.522-66.783 44.524 66.783-44.523 66.783Zm111.304 0-44.522-66.783 44.522-66.783 44.522 66.783-44.522 66.783Zm-55.651 89.043-44.522-66.783 44.522-66.782 44.522 66.782-44.522 66.783Z"/>
  </g>
  <defs>
    <clipPath id="a">
      <path fill="#fff" d="M.578.001h512v512h-512z"/>
    </clipPath>
  </defs>
</svg>
