<svg xmlns="http://www.w3.org/2000/svg" width="513" height="512" fill="none" viewBox="0 0 513 512">
  <g clip-path="url(#a)">
    <path fill="#F0F0F0" d="M25.98 144.696C9.706 178.352.578 216.109.578 256c0 39.891 9.128 77.648 25.402 111.304l230.598 22.261 230.598-22.261c16.274-33.656 25.402-71.413 25.402-111.304 0-39.891-9.128-77.648-25.402-111.304l-230.598-22.261L25.98 144.696Z"/>
    <path fill="#000" d="M25.99 367.304C67.394 452.935 155.083 512 256.577 512s189.183-59.065 230.589-144.696H25.989Z"/>
    <path fill="#D80027" d="M25.99 144.696h461.177C445.761 59.065 358.072 0 256.578 0S67.395 59.065 25.989 144.696Z"/>
    <path fill="#496E2D" d="M75.558 74.98c-99.974 99.974-99.974 262.065 0 362.04L256.578 256 75.558 74.98Z"/>
  </g>
  <defs>
    <clipPath id="a">
      <path fill="#fff" d="M.578 0h512v512h-512z"/>
    </clipPath>
  </defs>
</svg>
