<svg xmlns="http://www.w3.org/2000/svg" width="513" height="512" fill="none" viewBox="0 0 513 512">
  <g clip-path="url(#a)">
    <path fill="#FFDA44" d="M487.176 367.304C503.45 333.649 512.578 295.89 512.578 256s-9.128-77.649-25.402-111.304l-230.598-11.131-230.598 11.13C9.706 178.351.578 216.11.578 256s9.128 77.649 25.402 111.304l230.598 11.131 230.598-11.131Z"/>
    <path fill="#000" d="M256.578 0C155.084 0 67.388 59.065 25.981 144.696h461.194C445.768 59.065 358.071 0 256.578 0Z"/>
    <path fill="#0052B4" d="M256.578 512c-101.494 0-189.19-59.065-230.597-144.696h461.194C445.768 452.935 358.071 512 256.578 512Z"/>
    <path fill="#A2001D" d="M500.489 178.087H12.667C4.825 202.656.578 228.831.578 256c0 27.169 4.247 53.344 12.09 77.913h487.82c7.843-24.569 12.09-50.744 12.09-77.913 0-27.169-4.247-53.344-12.089-77.913Z"/>
    <path fill="#FFDA44" d="M89.621 244.87h333.913v22.261H89.621V244.87Zm44.523-44.522h244.87v22.261h-244.87v-22.261Z"/>
    <path fill="#F0F0F0" d="M380.603 256s-57.243 66.783-124.025 66.783c-66.782 0-66.783-66.783-66.783-66.783s0-66.783 66.783-66.783S380.603 256 380.603 256Z"/>
    <path fill="#000" d="M256.578 322.783c-66.783 0-124.025-66.783-124.025-66.783s57.242-66.783 124.025-66.783"/>
    <path fill="#F0F0F0" d="M212.056 233.739h22.261v44.522h-22.261v-44.522Z"/>
    <path fill="#000" d="M278.839 233.739H301.1v44.522h-22.261v-44.522Z"/>
    <path fill="#0052B4" d="M89.621 278.261c12.295 0 22.261-9.966 22.261-22.261 0-12.294-9.966-22.261-22.26-22.261-12.295 0-22.262 9.967-22.262 22.261 0 12.295 9.967 22.261 22.261 22.261Zm333.914 0c12.295 0 22.261-9.966 22.261-22.261 0-12.294-9.966-22.261-22.261-22.261-12.294 0-22.261 9.967-22.261 22.261 0 12.295 9.967 22.261 22.261 22.261Z"/>
  </g>
  <defs>
    <clipPath id="a">
      <path fill="#fff" d="M.578 0h512v512h-512z"/>
    </clipPath>
  </defs>
</svg>
