<svg xmlns="http://www.w3.org/2000/svg" width="513" height="512" fill="none" viewBox="0 0 513 512">
  <g clip-path="url(#a)">
    <path fill="#FFDA44" d="M256.578 511.999c141.385 0 256-114.615 256-256s-114.615-256-256-256-256 114.615-256 256 114.615 256 256 256Z"/>
    <path fill="#0052B4" d="M200.927 222.608h309.484C494.048 97.001 386.645-.001 256.578-.001a256.902 256.902 0 0 0-55.652 6.085v216.524h.001Zm-66.784-.001V31.126C63.849 69.48 13.528 139.831 2.745 222.608h131.398v-.001Zm-.001 66.783H2.745c10.783 82.777 61.104 153.128 131.398 191.481l-.001-191.481Zm66.784.001v216.523a256.902 256.902 0 0 0 55.652 6.085c130.067 0 237.47-97.002 253.833-222.609H200.926v.001Z"/>
  </g>
  <defs>
    <clipPath id="a">
      <path fill="#fff" d="M.578-.001h512v512h-512z"/>
    </clipPath>
  </defs>
</svg>
