<svg xmlns="http://www.w3.org/2000/svg" width="513" height="512" fill="none" viewBox="0 0 513 512">
  <g clip-path="url(#a)">
    <path fill="#F0F0F0" d="M256.578 512c141.385 0 256-114.615 256-256S397.963 0 256.578 0s-256 114.615-256 256 114.615 256 256 256Z"/>
    <path fill="#D80027" d="M256.579 0C146.508 0 52.673 69.472 16.502 166.957h480.155C460.485 69.472 366.65 0 256.579 0Z"/>
    <path fill="#000" d="M256.579 512c110.071 0 203.906-69.472 240.077-166.957H16.502C52.673 442.528 146.508 512 256.579 512Z"/>
    <path fill="#6DA544" d="m153.539 194.783 13.813 42.512h44.703l-36.165 26.278 13.814 42.514-36.165-26.275-36.165 26.275 13.814-42.514-36.165-26.278h44.703l13.813-42.512Zm206.077 0 13.813 42.512h44.704l-36.166 26.278 13.814 42.514-36.165-26.275-36.165 26.275 13.814-42.514-36.165-26.278h44.703l13.813-42.512Z"/>
  </g>
  <defs>
    <clipPath id="a">
      <path fill="#fff" d="M.578 0h512v512h-512z"/>
    </clipPath>
  </defs>
</svg>
