<svg xmlns="http://www.w3.org/2000/svg" width="512" height="512" fill="none" viewBox="0 0 512 512">
  <g clip-path="url(#a)">
    <path fill="#D80027" d="M512 255.999c0 141.384-114.616 256-256 256-141.384 0-256-114.616-256-256l256-256c141.384 0 256 114.616 256 256Z"/>
    <path fill="#0052B4" d="M256 255.999v-256c-141.384 0-256 114.616-256 256h256Z"/>
    <path fill="#F0F0F0" d="m222.609 149.82-31.265 14.708 16.648 30.279-33.949-6.496-4.303 34.297-23.646-25.224-23.648 25.224-4.301-34.297-33.95 6.494 16.648-30.279-31.264-14.706 31.265-14.705-16.649-30.28 33.949 6.495 4.303-34.296 23.647 25.224 23.647-25.224 4.302 34.296 33.95-6.495-16.649 30.281 31.265 14.704Z"/>
    <path fill="#0052B4" d="M146.098 197.468c26.318 0 47.653-21.335 47.653-47.653 0-26.318-21.335-47.653-47.653-47.653-26.318 0-47.653 21.335-47.653 47.653 0 26.318 21.335 47.653 47.653 47.653Z"/>
    <path fill="#F0F0F0" d="M146.094 175.212c-14.001 0-25.391-11.391-25.391-25.392s11.391-25.392 25.391-25.392c14.001 0 25.392 11.391 25.392 25.392-.001 14.001-11.393 25.392-25.392 25.392Z"/>
  </g>
  <defs>
    <clipPath id="a">
      <path fill="#fff" d="M0-.001h512v512H0z"/>
    </clipPath>
  </defs>
</svg>
