<svg xmlns="http://www.w3.org/2000/svg" width="512" height="513" fill="none" viewBox="0 0 512 513">
  <g clip-path="url(#a)">
    <path fill="#F0F0F0" d="M25.402 145.277C9.128 178.933 0 216.691 0 256.581s9.128 77.648 25.402 111.304L256 390.146l230.598-22.261C502.872 334.229 512 296.471 512 256.581s-9.128-77.648-25.402-111.304L256 123.016 25.402 145.277Z"/>
    <path fill="#6DA544" d="M25.411 367.885C66.818 453.515 154.507 512.581 256 512.581s189.183-59.066 230.589-144.696H25.411Z"/>
    <path fill="#D80027" d="M25.411 145.277H486.59C445.183 59.647 357.493.581 256 .581S66.818 59.647 25.411 145.277Z"/>
    <path fill="#FFDA44" d="M211.478 323.364h89.044V285.52l-17.809 8.904L256 267.711l-26.713 26.713-17.809-8.904v37.844Zm-50.946-44.521 4.145 12.754h13.41l-10.85 7.883 4.145 12.754-10.85-7.882-10.85 7.882 4.145-12.754-10.85-7.883h13.41l4.145-12.754Zm12.848-44.523 4.145 12.754h13.41l-10.85 7.883 4.144 12.754-10.849-7.882-10.85 7.882 4.145-12.754-10.85-7.883h13.41l4.145-12.754Zm36.733-33.39 4.145 12.754h13.409l-10.848 7.883 4.143 12.754-10.849-7.882-10.849 7.882 4.144-12.754-10.85-7.883h13.411l4.144-12.754Zm141.354 77.913-4.145 12.754h-13.41l10.85 7.883-4.145 12.754 10.85-7.882 10.849 7.882-4.144-12.754 10.85-7.883h-13.41l-4.145-12.754Zm-12.849-44.523-4.145 12.754h-13.41l10.85 7.883-4.145 12.754 10.85-7.882 10.85 7.882-4.145-12.754 10.85-7.883h-13.41l-4.145-12.754Zm-36.731-33.39-4.145 12.754h-13.409l10.848 7.883-4.144 12.754 10.85-7.882 10.849 7.882-4.144-12.754 10.849-7.883h-13.41l-4.144-12.754Zm-45.888-16.698 4.145 12.754h13.41l-10.85 7.883 4.145 12.754-10.85-7.882-10.85 7.882 4.145-12.754-10.85-7.883h13.41l4.145-12.754Z"/>
  </g>
  <defs>
    <clipPath id="a">
      <path fill="#fff" d="M0 .581h512v512H0z"/>
    </clipPath>
  </defs>
</svg>
