<svg xmlns="http://www.w3.org/2000/svg" width="512" height="512" fill="none" viewBox="0 0 512 512">
  <g clip-path="url(#a)">
    <path fill="#FFDA44" d="M256 512c141.385 0 256-114.615 256-256S397.385 0 256 0 0 114.615 0 256s114.615 256 256 256Z"/>
    <path fill="#000" d="M74.98 437.02a257.556 257.556 0 0 0 34.216 28.748l356.57-356.571a257.396 257.396 0 0 0-28.747-34.216 257.589 257.589 0 0 0-34.216-28.747L46.234 402.805A257.688 257.688 0 0 0 74.98 437.02Z"/>
    <path fill="#6DA544" d="M74.98 74.98c-80.762 80.764-96.267 202.055-46.544 298.398L373.378 28.437C277.035-21.286 155.743-5.78 74.98 74.98Z"/>
    <path fill="#338AF3" d="M437.019 437.02c80.762-80.762 96.266-202.055 46.545-298.398L138.622 483.564c96.341 49.723 217.634 34.218 298.397-46.544Z"/>
  </g>
  <defs>
    <clipPath id="a">
      <path fill="#fff" d="M0 0h512v512H0z"/>
    </clipPath>
  </defs>
</svg>
