<svg xmlns="http://www.w3.org/2000/svg" width="512" height="512" fill="none" viewBox="0 0 512 512">
  <g clip-path="url(#a)">
    <path fill="#F0F0F0" d="M256 512.001c141.385 0 256-114.615 256-256s-114.615-256-256-256-256 114.615-256 256 114.615 256 256 256Z"/>
    <path fill="#0052B4" d="M496.077 166.958H15.923C5.632 194.691 0 224.687 0 256.001c0 31.314 5.632 61.31 15.923 89.043h480.155C506.368 317.311 512 287.315 512 256.001c0-31.314-5.632-61.31-15.923-89.043Z"/>
    <path fill="#D80027" d="M256 .001c-77.591 0-147.114 34.524-194.06 89.043h388.12C403.114 34.525 333.591.001 256 .001Zm194.061 422.957H61.94c46.946 54.519 116.469 89.043 194.06 89.043 77.591 0 147.114-34.524 194.061-89.043Z"/>
  </g>
  <defs>
    <clipPath id="a">
      <path fill="#fff" d="M0 .001h512v512H0z"/>
    </clipPath>
  </defs>
</svg>
