<svg xmlns="http://www.w3.org/2000/svg" width="512" height="512" fill="none" viewBox="0 0 512 512">
  <g clip-path="url(#a)">
    <path fill="#FFDA44" d="M256 512c141.385 0 256-114.615 256-256S397.385 0 256 0 0 114.615 0 256s114.615 256 256 256Z"/>
    <path fill="#496E2D" d="M256 0c-.186.002-11.13 102.4-11.13 102.4h215.942C414.107 40.223 339.752 0 256 0Zm0 512c83.752 0 158.107-40.223 204.811-102.4H51.19C97.894 471.777 172.248 512 256 512Zm250.874-307.2H244.87L256 307.2h250.874A257.027 257.027 0 0 0 512 256c0-17.535-1.768-34.657-5.126-51.2Z"/>
    <path fill="#D80027" d="M256 307.2V0C114.616 0 0 114.616 0 256c0 17.535 1.768 34.657 5.126 51.2H256Z"/>
    <path fill="#F0F0F0" d="m141.257 122.435 16.576 51.015h53.645l-43.397 31.533L184.655 256l-43.398-31.53L97.859 256l16.577-51.017-43.397-31.533h53.643l16.575-51.015Z"/>
  </g>
  <defs>
    <clipPath id="a">
      <path fill="#fff" d="M0 0h512v512H0z"/>
    </clipPath>
  </defs>
</svg>
