<svg xmlns="http://www.w3.org/2000/svg" width="512" height="512" fill="none" viewBox="0 0 512 512">
  <g clip-path="url(#a)">
    <path fill="#F0F0F0" d="M256 511.999c141.385 0 256-114.615 256-256s-114.615-256-256-256-256 114.615-256 256 114.615 256 256 256Z"/>
    <path fill="#D80027" d="M166.957 133.564v-33.391h-33.392v33.391h-33.391v33.392h33.391v33.391h33.392v-33.391h33.391v-33.392h-33.391Z"/>
    <path fill="#D80027" d="M256-.001v256L0 256c0 141.383 114.616 255.999 256 255.999 141.384 0 256-114.616 256-256 0-141.384-114.616-256-256-256Z"/>
  </g>
  <defs>
    <clipPath id="a">
      <path fill="#fff" d="M0-.001h512v512H0z"/>
    </clipPath>
  </defs>
</svg>
