<svg xmlns="http://www.w3.org/2000/svg" width="512" height="512" fill="none" viewBox="0 0 512 512">
  <g clip-path="url(#a)">
    <path fill="#D80027" d="M256 511.999c141.385 0 256-114.615 256-256s-114.615-256-256-256-256 114.615-256 256 114.615 256 256 256Z"/>
    <path fill="#F0F0F0" d="M256 378.434c67.619 0 122.435-54.816 122.435-122.435S323.619 133.564 256 133.564 133.565 188.38 133.565 255.999 188.381 378.434 256 378.434Z"/>
    <path fill="#D80027" d="m271.083 209.186 21.004 28.945 34.017-11.03-21.037 28.92 21.002 28.944-34.006-11.072-21.037 28.92.022-35.761-34.005-11.072 34.018-11.03.022-35.764Z"/>
    <path fill="#D80027" d="M283.826 328.347c-39.956 0-72.348-32.392-72.348-72.348 0-39.956 32.392-72.348 72.348-72.348 12.458 0 24.181 3.15 34.415 8.696-16.055-15.701-38.01-25.392-62.241-25.392-49.176 0-89.043 39.866-89.043 89.043 0 49.177 39.867 89.043 89.043 89.043 24.231 0 46.187-9.691 62.241-25.392-10.234 5.548-21.957 8.698-34.415 8.698Z"/>
  </g>
  <defs>
    <clipPath id="a">
      <path fill="#fff" d="M0-.001h512v512H0z"/>
    </clipPath>
  </defs>
</svg>
