<svg xmlns="http://www.w3.org/2000/svg" width="512" height="512" fill="none" viewBox="0 0 512 512">
  <g clip-path="url(#a)">
    <path fill="#0052B4" d="M512 256.001c0 141.384-114.616 256-256 256-141.384 0-256-114.616-256-256 0 .061 256-255.972 256-256 141.384 0 256 114.616 256 256Z"/>
    <path fill="#F0F0F0" d="M255.315 256.001H256v-.685l-.685.685Z"/>
    <path fill="#F0F0F0" d="M256 133.566V.001h-.043C114.591.025 0 114.63 0 256.001h133.565V180.79l75.211 75.211h46.54l.685-.685v-46.537l-75.213-75.213H256Z"/>
    <path fill="#D80027" d="M129.515 33.392a257.211 257.211 0 0 0-96.124 96.124v126.485h66.783V100.175H256V33.392H129.515Z"/>
    <path fill="#D80027" d="m255.999 224.519-90.955-90.953h-31.48v.002L255.997 256h.002v-31.481Z"/>
    <path fill="#FFDA44" d="M289.391 133.566V256c0 59.64 77.913 77.914 77.913 77.914S445.217 315.64 445.217 256V133.566H289.391Z"/>
    <path fill="#FF9811" d="M356.174 178.088c0 12.295-9.966 44.522-22.261 44.522s-22.261-32.227-22.261-44.522c0-12.295 22.261-22.261 22.261-22.261s22.261 9.966 22.261 22.261Z"/>
    <path fill="#A2001D" d="M415.245 202.333c3.592-8.765 6.386-21.577 6.386-27.955 0-10.246-13.357-18.551-13.357-18.551s-13.357 8.306-13.357 18.551c0 6.378 2.794 19.19 6.386 27.955l-7.711 17.41a38.9 38.9 0 0 0 14.681 2.866 38.9 38.9 0 0 0 14.681-2.866l-7.709-17.41Z"/>
    <path fill="#6DA544" d="M350.609 256.001s-11.13 22.261-11.13 44.522h55.652C395.13 278.262 384 256.001 384 256.001l-16.697-11.13-16.694 11.13Z"/>
    <path fill="#D80027" d="M384 256.001v-5.565c0-9.22-7.475-16.696-16.696-16.696-9.22 0-16.696 7.475-16.696 16.696v5.565H384Z"/>
  </g>
  <defs>
    <clipPath id="a">
      <path fill="#fff" d="M0 .001h512v512H0z"/>
    </clipPath>
  </defs>
</svg>
