<svg xmlns="http://www.w3.org/2000/svg" width="512" height="512" fill="none" viewBox="0 0 512 512">
  <g clip-path="url(#a)">
    <path fill="#496E2D" d="M255.999 0a256.886 256.886 0 0 0-55.651 6.085l-11.13 249.914 11.13 249.915A256.9 256.9 0 0 0 255.999 512c141.385 0 256-114.616 256-256.001C511.998 114.615 397.384 0 255.999 0ZM66.783 83.571C25.299 129.067.001 189.577.001 256S25.3 382.931 66.784 428.429l11.13-172.43L66.783 83.571Z"/>
    <path fill="#F0F0F0" d="M374.422 193.099c12.595-35.106-1.555-73.287-31.922-92.303a78.199 78.199 0 0 1 16.326 3.932c40.503 14.532 61.557 59.144 47.025 99.646-14.532 40.505-59.144 61.557-99.647 47.025a78.117 78.117 0 0 1-15.103-7.344c35.53 4.627 70.726-15.85 83.321-50.956ZM304.564 91.173l-10.945 14.142-16.829-6.04 10.066 14.779-10.943 14.14 17.165-5.006 10.068 14.776.54-17.872 17.166-5.007-16.829-6.037.541-17.875Z"/>
    <path fill="#F0F0F0" d="m334.117 137.252-10.945 14.141-16.83-6.039 10.067 14.778-10.944 14.14 17.165-5.008 10.068 14.779.542-17.873 17.165-5.008-16.83-6.038.542-17.872Zm-81.656-29.297-10.945 14.14-16.829-6.037 10.067 14.777-10.944 14.141 17.164-5.007 10.068 14.777.542-17.872 17.165-5.007-16.829-6.039.541-17.873Zm-1.201 52.782-10.944 14.141-16.83-6.038 10.068 14.778-10.946 14.14 17.167-5.006 10.067 14.776.541-17.872 17.166-5.007-16.831-6.039.542-17.873Zm50.226 18.021-10.945 14.14-16.829-6.038 10.068 14.778-10.946 14.139 17.167-5.006 10.067 14.778.541-17.874 17.166-5.006-16.831-6.038.542-17.873Z"/>
    <path fill="#D80027" d="M66.783 83.571v344.857c34.88 38.254 81.21 65.879 133.565 77.485V6.085c-52.356 11.606-98.684 39.231-133.565 77.486Z"/>
    <path fill="#F0F0F0" d="m117.753 134.785-22.361-16.658V94.57l22.361-16.657h31.625l22.361 16.657v23.557l-22.361 16.658h-31.625Z"/>
    <path fill="#FF9811" d="M133.566 77.913h-15.813L95.392 94.57v11.517h38.174V77.913Zm-.001 56.872h15.812l22.361-16.658V106.11h-38.173v28.675Z"/>
    <path fill="#F0F0F0" d="m117.753 434.085-22.361-16.658v-23.556l22.361-16.658h31.625l22.361 16.658v23.556l-22.361 16.658h-31.625Z"/>
    <path fill="#FF9811" d="M133.566 377.213h-15.813l-22.361 16.658v11.517h38.174v-28.175Zm-.001 56.872h15.812l22.361-16.658v-12.016h-38.173v28.674Z"/>
    <path fill="#496E2D" d="m117.754 284.434-22.361-16.657V244.22l22.361-16.658h31.625l22.361 16.658v23.557l-22.361 16.657h-31.625Zm54.768 36.651h-9.74v-9.739h-17.115l-12.102-12.102-12.101 12.102h-17.115v9.739H94.61v19.478h9.739v9.739h17.114l12.103 12.103 12.101-12.103h17.115v-9.739h9.74v-19.478Zm0-149.651h-9.74v-9.74h-17.115l-12.102-12.102-12.101 12.102h-17.115v9.74H94.61v19.478h9.739v9.739h17.114l12.103 12.104 12.101-12.104h17.115v-9.739h9.74v-19.478Z"/>
    <path fill="#D80027" d="M122.434 244.868h22.261v22.261h-22.261v-22.261Zm11.13-52.569c6.147 0 11.13-4.983 11.13-11.13 0-6.147-4.983-11.13-11.13-11.13-6.147 0-11.13 4.983-11.13 11.13 0 6.147 4.983 11.13 11.13 11.13Zm0 149.659c6.147 0 11.13-4.983 11.13-11.13 0-6.147-4.983-11.13-11.13-11.13-6.147 0-11.13 4.983-11.13 11.13 0 6.147 4.983 11.13 11.13 11.13Z"/>
  </g>
  <defs>
    <clipPath id="a">
      <path fill="#fff" d="M0 0h512v512H0z"/>
    </clipPath>
  </defs>
</svg>
