<svg xmlns="http://www.w3.org/2000/svg" width="512" height="512" fill="none" viewBox="0 0 512 512">
  <g clip-path="url(#a)">
    <path fill="#338AF3" d="M512 256c0 141.384-114.616 256-255.999 256C114.616 512 0 397.384 0 256 0 256.061 256.001.028 256.001 0 397.384 0 512 114.616 512 256Z"/>
    <path fill="#0052B4" d="M122.435 256h86.342l-75.212-89.043-11.13 33.391V256Zm133.566-47.222-89.044-86.343H256l.001 86.343Z"/>
    <path fill="#F0F0F0" d="M255.315 256H256v-.685l-.685.685Z"/>
    <path fill="#F0F0F0" d="M256.001 133.565V0h-.043C114.592.024 0 114.629 0 256h133.566v-75.211L208.777 256h46.54l.685-.685v-46.537l-75.214-75.213h75.213Z"/>
    <path fill="#D80027" d="M129.515 33.39a257.218 257.218 0 0 0-96.124 96.125V256h66.783V100.174H256V33.391H129.515Z"/>
    <path fill="#D80027" d="m256 224.518-90.955-90.953h-31.48v.002l122.433 122.432H256v-31.481Z"/>
    <path fill="#FFDA44" d="m279.406 422.957 5.526 17.006h17.881l-14.465 10.51 5.526 17.005-14.468-10.509-14.465 10.509 5.526-17.005L256 439.963h17.88l5.526-17.006Zm142.405-111.305 5.525 17.006h17.881l-14.465 10.511 5.527 17.005-14.468-10.509-14.465 10.509 5.526-17.005-14.468-10.511h17.881l5.526-17.006Zm35.682-166.956 5.526 17.006H480.9l-14.465 10.51 5.525 17.005-14.467-10.509-14.465 10.509 5.526-17.005-14.467-10.51h17.881l5.525-17.006Zm8.84 122.434 5.525 17.007h17.881l-14.465 10.51 5.526 17.005-14.467-10.509-14.465 10.509 5.526-17.005-14.468-10.51h17.881l5.526-17.007ZM305.046 382.96l15.935 8.119 12.643-12.643-2.796 17.659 15.931 8.118-17.662 2.798-2.797 17.661-8.116-15.933-17.662 2.799 12.643-12.643-8.119-15.935Zm0-66.783 15.935 8.118 12.643-12.643-2.796 17.66 15.931 8.117-17.662 2.798-2.797 17.661-8.116-15.932-17.662 2.798 12.643-12.643-8.119-15.934Zm55.652 42.807 15.935 8.119 12.643-12.643-2.796 17.659 15.931 8.118-17.662 2.798-2.797 17.661-8.116-15.934-17.662 2.8 12.643-12.643-8.119-15.935Zm0-142.98 15.935 8.118 12.643-12.643-2.796 17.66 15.931 8.117-17.662 2.798-2.797 17.661-8.116-15.932-17.662 2.798 12.643-12.643-8.119-15.934Zm53.937-1.714 15.935 8.118 12.643-12.643-2.797 17.66 15.932 8.117-17.662 2.798-2.797 17.661-8.116-15.932-17.662 2.798 12.643-12.643-8.119-15.934Z"/>
  </g>
  <defs>
    <clipPath id="a">
      <path fill="#fff" d="M0 0h512v512H0z"/>
    </clipPath>
  </defs>
</svg>
