<svg xmlns="http://www.w3.org/2000/svg" width="512" height="512" fill="none" viewBox="0 0 512 512">
  <g clip-path="url(#a)">
    <path fill="#F0F0F0" d="M256 511.999c141.385 0 256-114.615 256-256s-114.615-256-256-256-256 114.615-256 256 114.615 256 256 256Z"/>
    <path fill="#000" d="m144.696 345.042 22.261 151.036c27.732 10.291 57.729 15.921 89.043 15.921 110.07 0 203.906-69.472 240.076-166.957h-351.38Z"/>
    <path fill="#6DA544" d="M144.696 166.956 166.957 15.92C194.689 5.629 224.686-.001 256-.001c110.07 0 203.906 69.472 240.076 166.957h-351.38Z"/>
    <path fill="#A2001D" d="M0 255.999C0 366.07 69.473 459.905 166.957 496.076V15.922C69.473 52.092 0 145.928 0 255.999Z"/>
  </g>
  <defs>
    <clipPath id="a">
      <path fill="#fff" d="M0-.001h512v512H0z"/>
    </clipPath>
  </defs>
</svg>
