<svg xmlns="http://www.w3.org/2000/svg" width="512" height="513" fill="none" viewBox="0 0 512 513">
  <g clip-path="url(#a)">
    <path fill="#F0F0F0" d="M256 512.581c141.385 0 256-114.615 256-256s-114.615-256-256-256-256 114.615-256 256 114.615 256 256 256Z"/>
    <path fill="#338AF3" d="M256 189.798h247.181a254.559 254.559 0 0 0-28.755-66.783H256v66.783ZM96.643 456.929h318.713a257.293 257.293 0 0 0 59.069-66.783H37.575a257.346 257.346 0 0 0 59.068 66.783ZM256 .581v55.652h159.357C371.627 21.405 316.249.581 256 .581Z"/>
    <path fill="#338AF3" d="M256 189.798h247.181a254.559 254.559 0 0 0-28.755-66.783H256v66.783ZM0 256.581c0 23.107 3.08 45.489 8.819 66.783h494.363C508.92 302.07 512 279.688 512 256.581H0Z"/>
    <path fill="#FFDA44" d="m222.609 150.402-31.266 14.707 16.649 30.28-33.95-6.494-4.302 34.295-23.646-25.224-23.648 25.224-4.301-34.295-33.95 6.492 16.648-30.279-31.264-14.706 31.265-14.705-16.649-30.28 33.949 6.494 4.303-34.295 23.647 25.224 23.647-25.224 4.301 34.295 33.951-6.494-16.649 30.281 31.265 14.704Z"/>
  </g>
  <defs>
    <clipPath id="a">
      <path fill="#fff" d="M0 .581h512v512H0z"/>
    </clipPath>
  </defs>
</svg>
