<svg xmlns="http://www.w3.org/2000/svg" width="512" height="512" fill="none" viewBox="0 0 512 512">
  <g clip-path="url(#a)">
    <path fill="#000" d="M512 256.002a258.35 258.35 0 0 0-2.167-33.391H222.606C170.305 170.313 74.976 74.991 74.98 74.982c-99.975 99.974-99.975 262.064 0 362.04l147.629-147.628h287.224A258.556 258.556 0 0 0 512 256.002Z"/>
    <path fill="#F0F0F0" d="M511.928 261.823c-.011.494-.022.99-.036 1.484l.036-1.484Zm-.246 6.996c-.023.489-.057.976-.083 1.464.026-.487.058-.975.083-1.464Zm-.345 5.58c-.051.719-.101 1.438-.159 2.155.058-.717.107-1.436.159-2.155Zm-.856-46.299c.094.856.188 1.711.273 2.569-.085-.859-.18-1.713-.273-2.569Zm1.117 13.619c.027.488.06.975.083 1.464-.024-.489-.056-.977-.083-1.464Zm.293 6.977c.014.494.024.99.036 1.484-.011-.496-.023-.99-.036-1.484Zm-.713-13.249c.058.717.108 1.436.159 2.155-.052-.719-.101-1.438-.159-2.155Z"/>
    <path fill="#D80027" d="M509.833 222.61c.115.877.217 1.759.322 2.638C494.961 98.366 386.975.002 256 .002c-70.694 0-134.695 28.655-181.022 74.984l147.624 147.625h287.231v-.001Z"/>
    <path fill="#6DA544" d="M509.833 289.393H222.602L74.978 437.018c46.327 46.328 110.328 74.984 181.022 74.984 130.975 0 238.962-98.364 254.155-225.247-.105.879-.209 1.761-.322 2.638Z"/>
    <path fill="#F0F0F0" d="M510.753 281.334c-.085.858-.179 1.713-.273 2.569.094-.856.189-1.71.273-2.569Z"/>
    <path fill="#000" d="M511.336 237.603Zm-1.181-12.355Zm.598 5.421ZM512 256.002Zm-.403 14.282Zm-.42 6.271Zm-.696 7.348Zm1.446-33.723Zm-.246-6.997Zm.209 20.125Z"/>
    <path fill="#FFDA44" d="M511.755 244.779H213.2L59.843 91.445c-4.957 5.228-10.33 12.528-13.653 17.727l146.66 146.736L46.067 402.693c2.906 5.17 9.237 12.822 13.682 17.801L213.203 267.04h298.588c.159-3.692.209-7.4.209-11.13a248.985 248.985 0 0 0-.245-11.131Z"/>
    <path fill="#FFDA44" d="M62.187 310.575v-21.443c21.398 0 38.805-17.409 38.805-38.805 0-15.139-12.317-27.455-27.455-27.455-10.313 0-18.704 8.39-18.704 18.705 0 6.595 5.365 11.961 11.96 11.961 3.729 0 6.762-3.035 6.762-6.763h21.442c0 15.553-12.652 28.205-28.202 28.205-18.42.001-33.402-14.985-33.402-33.401 0-22.137 18.01-40.146 40.145-40.146 26.962 0 48.898 21.936 48.898 48.897-.001 33.217-27.028 60.245-60.25 60.245Z"/>
  </g>
  <defs>
    <clipPath id="a">
      <path fill="#fff" d="M0 .001h512.001v512.001H0z"/>
    </clipPath>
  </defs>
</svg>
