<svg xmlns="http://www.w3.org/2000/svg" width="512" height="512" fill="none" viewBox="0 0 512 512">
  <g clip-path="url(#a)">
    <path fill="#FCFCFC" d="M256 511.999c141.385 0 256-114.615 256-256s-114.615-256-256-256-256 114.615-256 256 114.615 256 256 256Z"/>
    <path fill="#FFDA44" d="M299.479 178.845c0-24.012-19.466-43.478-43.479-43.478-24.013 0-43.479 19.466-43.479 43.478H116.87c0 23.641 20.594 42.808 44.235 42.808h-1.424c0 23.643 19.164 42.811 42.809 42.811 0 20.933 15.034 38.327 34.889 42.045l-.111.25h37.465l-.111-.25c19.856-3.72 34.889-21.113 34.889-42.045 23.644 0 42.809-19.168 42.809-42.811h-1.426c23.641 0 44.236-19.167 44.236-42.808h-95.651Z"/>
    <path fill="#FFDA44" d="m236.887 302.323-26.958 60.863a122.063 122.063 0 0 0 46.072 8.996c16.301 0 31.848-3.213 46.071-8.996l-26.957-60.863h-38.228Z"/>
    <path fill="#F0F0F0" d="M200.348 200.226v74.891c0 42.598 55.652 55.652 55.652 55.652s55.652-13.054 55.652-55.652v-74.891H200.348Z"/>
    <path fill="#338AF3" d="m62.079 257.801 30.099 84.184 29.786-84.184h22.732L101.27 369.105H83.085L39.348 257.801h22.73Zm349.747 111.304V257.801h21.633v111.304h-21.633Z"/>
    <path fill="#D80027" d="M222.609 224.41v90.754c7.651 5.631 15.883 9.504 22.261 11.984V224.41h-22.261Zm66.783 0v90.754c-7.651 5.631-15.883 9.504-22.261 11.984V224.41h22.261Z"/>
    <path fill="#0052B4" d="M200.348 200.224h111.304v35.316H200.348v-35.316Z"/>
  </g>
  <defs>
    <clipPath id="a">
      <path fill="#fff" d="M0-.001h512v512H0z"/>
    </clipPath>
  </defs>
</svg>
