<svg xmlns="http://www.w3.org/2000/svg" width="512" height="512" fill="none" viewBox="0 0 512 512">
  <g clip-path="url(#a)">
    <path fill="#496E2D" d="M256 512c141.385 0 256-114.615 256-256S397.385 0 256 0 0 114.615 0 256s114.615 256 256 256Z"/>
    <path fill="#D80027" d="M356.174 256H256v256c29.924 0 58.641-5.151 85.333-14.586L356.174 256Z"/>
    <path fill="#FF9811" d="M426.666 446.793C479.034 399.919 512 331.813 512 256H411.826l14.84 190.793Z"/>
    <path fill="#000" d="M341.333 256v241.414c31.797-11.241 60.711-28.58 85.334-50.62V256h-85.334Z"/>
    <path fill="#FF9811" d="M473.043 166.957H406.26c0-12.294-9.967-22.261-22.261-22.261-12.294 0-22.261 9.967-22.261 22.261h-66.783c0 12.295 10.709 22.261 23.002 22.261h-.741c0 12.295 9.965 22.261 22.261 22.261 0 12.295 9.965 22.261 22.261 22.261h44.522c12.294 0 22.261-9.966 22.261-22.261 12.294 0 22.261-9.966 22.261-22.261h-.741c12.294-.001 23.002-9.967 23.002-22.261Z"/>
  </g>
  <defs>
    <clipPath id="a">
      <path fill="#fff" d="M0 0h512v512H0z"/>
    </clipPath>
  </defs>
</svg>
